<svg width="245" height="241" viewBox="0 0 245 241" fill="none" xmlns="http://www.w3.org/2000/svg">
<path fill-rule="evenodd" clip-rule="evenodd" d="M212.073 63.9623C212.661 63.5361 213 62.9068 213 62.2434V62.2434C213 61.0044 211.839 60 210.407 60H37.0258C34.8024 60 33 61.5592 33 63.4827V63.4827C33 64.518 33.5325 65.4997 34.453 66.1614L118.976 126.915C120.818 128.239 123.491 128.233 125.326 126.902L212.073 63.9623ZM41.1202 83.955C37.8921 81.6347 33 83.6206 33 87.2513V175.714C33 178.081 35.218 180 37.9541 180H208.046C210.782 180 213 178.081 213 175.714V85.5295C213 81.8895 208.086 79.9067 204.862 82.2458L125.888 139.545L125.36 139.928C123.526 141.26 120.853 141.265 119.011 139.941L118.481 139.56L41.1202 83.955Z" fill="#E91E8C"/>
</svg>
