<svg width="245" height="241" viewBox="0 0 245 241" fill="none" xmlns="http://www.w3.org/2000/svg">
<path fill-rule="evenodd" clip-rule="evenodd" d="M117.086 17C59.5292 17 13 63.4215 13 120.851C13 166.758 42.8128 205.617 84.1711 219.37C89.342 220.404 91.236 217.136 91.236 214.386C91.236 211.979 91.0656 203.726 91.0656 195.128C62.1114 201.319 56.0819 182.748 56.0819 182.748C51.4288 170.712 44.5343 167.619 44.5343 167.619C35.0576 161.257 45.2246 161.257 45.2246 161.257C55.7368 161.945 61.2528 171.917 61.2528 171.917C70.5569 187.734 85.5496 183.265 91.5812 180.513C92.4419 173.808 95.201 169.165 98.1305 166.587C75.0375 164.179 50.7406 155.239 50.7406 115.348C50.7406 104 54.8739 94.7159 61.4232 87.4952C60.3899 84.9167 56.7701 74.2546 62.4587 59.9842C62.4587 59.9842 71.2472 57.2327 91.0635 70.6442C99.5475 68.371 108.297 67.2146 117.086 67.2048C125.875 67.2048 134.834 68.4097 143.106 70.6442C162.925 57.2327 171.713 59.9842 171.713 59.9842C177.402 74.2546 173.78 84.9167 172.747 87.4952C179.469 94.7159 183.431 104 183.431 115.348C183.431 155.239 159.135 164.006 135.869 166.587C139.661 169.853 142.934 176.042 142.934 185.843C142.934 199.77 142.763 210.947 142.763 214.384C142.763 217.136 144.66 220.404 149.828 219.372C191.187 205.615 221 166.758 221 120.851C221.17 63.4215 174.47 17 117.086 17Z" fill="#E91E8C"/>
</svg>
