<svg width="245" height="241" viewBox="0 0 245 241" fill="none" xmlns="http://www.w3.org/2000/svg">
<g clip-path="url(#clip0_4002_193)">
<path d="M201.306 38H43.6582C36.1064 38 30 43.9619 30 51.333V209.631C30 217.002 36.1064 223 43.6582 223H201.306C208.857 223 215 217.002 215 209.667V51.333C215 43.9619 208.857 38 201.306 38ZM84.8857 195.647H57.4248V107.339H84.8857V195.647ZM71.1553 95.3066C62.3389 95.3066 55.2207 88.1885 55.2207 79.4082C55.2207 70.6279 62.3389 63.5098 71.1553 63.5098C79.9355 63.5098 87.0537 70.6279 87.0537 79.4082C87.0537 88.1523 79.9355 95.3066 71.1553 95.3066ZM187.647 195.647H160.223V152.722C160.223 142.496 160.042 129.308 145.95 129.308C131.678 129.308 129.51 140.473 129.51 151.999V195.647H102.121V107.339H128.426V119.407H128.787C132.437 112.47 141.397 105.135 154.73 105.135C182.517 105.135 187.647 123.418 187.647 147.193V195.647V195.647Z" fill="#E91E8C"/>
</g>
<defs>
<clipPath id="clip0_4002_193">
<rect width="185" height="185" fill="white" transform="translate(30 38)"/>
</clipPath>
</defs>
</svg>
