<svg width="245" height="241" viewBox="0 0 245 241" fill="none" xmlns="http://www.w3.org/2000/svg">
<g clip-path="url(#clip0_4010_88)">
<path d="M191.675 59.9962V59.75H191.502C183.149 49.3122 172.605 40.8964 160.639 35.116C148.673 29.3355 135.587 26.336 122.333 26.336C109.08 26.336 95.9935 29.3355 84.0276 35.116C72.0618 40.8964 61.518 49.3122 53.1646 59.75H52.9999V59.9962C40.1154 76.0791 33.082 96.1716 33.082 116.896C33.082 137.62 40.1154 157.713 52.9999 173.796V174.042H53.1732C61.5267 184.479 72.0705 192.895 84.0363 198.676C96.0021 204.456 109.089 207.456 122.342 207.456C135.595 207.456 148.682 204.456 160.648 198.676C172.613 192.895 183.157 184.479 191.511 174.042H191.693V173.796C204.577 157.713 211.61 137.62 211.61 116.896C211.61 96.1716 204.577 76.0791 191.693 59.9962H191.675ZM126.667 59.75V35.7663C131.802 37.9527 136.421 41.2218 140.216 45.3567C144.011 49.4916 146.896 54.3979 148.68 59.75H126.667ZM152.103 68.5417C156.743 82.7314 159.235 97.5525 159.496 112.5H126.667V68.5417H152.103ZM118 35.7663V59.75H95.9866C97.7703 54.3979 100.655 49.4916 104.451 45.3567C108.246 41.2218 112.864 37.9527 118 35.7663ZM118 68.5417V112.5H85.1706C85.4311 97.5525 87.9236 82.7314 92.5632 68.5417H118ZM76.5126 112.5H41.9586C42.7798 96.6205 48.1802 81.3353 57.4892 68.5417H83.3506C79.0331 82.7929 76.7366 97.5927 76.5126 112.5ZM76.5126 121.292C76.7338 136.199 79.036 150.998 83.3506 165.25H57.4892C48.1802 152.456 42.7798 137.171 41.9586 121.292H76.5126ZM85.1792 121.292H118V165.25H92.5632C87.9236 151.06 85.4311 136.239 85.1706 121.292H85.1792ZM118 174.042V198.025C112.864 195.839 108.246 192.57 104.451 188.435C100.655 184.3 97.7703 179.394 95.9866 174.042H118ZM126.667 198.025V174.042H148.68C146.896 179.394 144.011 184.3 140.216 188.435C136.421 192.57 131.802 195.839 126.667 198.025ZM126.667 165.25V121.292H159.496C159.235 136.239 156.743 151.06 152.103 165.25H126.667ZM168.154 121.292H202.708C201.887 137.171 196.486 152.456 187.177 165.25H161.316C165.633 150.999 167.93 136.199 168.154 121.292ZM168.154 112.5C167.933 97.5932 165.63 82.7933 161.316 68.5417H187.177C196.486 81.3353 201.887 96.6205 202.708 112.5H168.154ZM179.871 59.75H158.196C155.206 52.0728 150.986 44.9494 145.707 38.6676C158.659 42.6743 170.408 49.9246 179.871 59.75ZM98.9592 38.6676C93.6832 44.95 89.4665 52.0734 86.4792 59.75H64.7866C74.2494 49.9246 85.9985 42.6743 98.9506 38.6676H98.9592ZM64.7952 174.042H86.4706C89.4605 181.719 93.6802 188.842 98.9592 195.124C86.0072 191.117 74.258 183.867 64.7952 174.042ZM145.707 195.124C150.983 188.842 155.2 181.718 158.187 174.042H179.871C170.408 183.867 158.659 191.117 145.707 195.124Z" fill="#E91E8C" stroke="#E91E8C" stroke-width="0.00146"/>
<path d="M14 7H222V218H14V7Z" stroke="#E91E8C" stroke-width="0.00146"/>
</g>
<defs>
<clipPath id="clip0_4010_88">
<rect width="208" height="211" fill="white" transform="translate(14 7)"/>
</clipPath>
</defs>
</svg>
