<svg width="54" height="50" viewBox="0 0 54 50" fill="none" xmlns="http://www.w3.org/2000/svg">
<path d="M36.3207 19.207C36.4763 19.3521 36.5997 19.5245 36.6839 19.7142C36.7681 19.9038 36.8114 20.1072 36.8114 20.3125C36.8114 20.5178 36.7681 20.7212 36.6839 20.9108C36.5997 21.1005 36.4763 21.2729 36.3207 21.418L24.6084 32.3555C24.453 32.5007 24.2685 32.616 24.0653 32.6946C23.8622 32.7733 23.6445 32.8137 23.4246 32.8137C23.2047 32.8137 22.987 32.7733 22.7839 32.6946C22.5808 32.616 22.3962 32.5007 22.2408 32.3555L17.2213 27.668C16.9073 27.3748 16.7309 26.9771 16.7309 26.5625C16.7309 26.1479 16.9073 25.7502 17.2213 25.457C17.5352 25.1638 17.961 24.9991 18.405 24.9991C18.849 24.9991 19.2749 25.1638 19.5888 25.457L23.4246 29.041L33.9531 19.207C34.1085 19.0618 34.2931 18.9465 34.4962 18.8679C34.6993 18.7892 34.917 18.7488 35.1369 18.7488C35.3568 18.7488 35.5745 18.7892 35.7777 18.8679C35.9808 18.9465 36.1653 19.0618 36.3207 19.207ZM48.5224 25C48.5224 29.0174 47.2467 32.9446 44.8566 36.285C42.4666 39.6254 39.0695 42.2289 35.0949 43.7663C31.1203 45.3037 26.7469 45.706 22.5275 44.9222C18.3081 44.1384 14.4324 42.2039 11.3904 39.3631C8.3484 36.5224 6.27677 32.903 5.43749 28.9628C4.5982 25.0225 5.02896 20.9384 6.67527 17.2267C8.32159 13.5151 11.1095 10.3427 14.6865 8.11077C18.2635 5.87881 22.469 4.6875 26.771 4.6875C32.538 4.69319 38.067 6.83507 42.1449 10.6432C46.2227 14.4513 48.5163 19.6145 48.5224 25ZM45.1761 25C45.1761 21.6006 44.0966 18.2776 42.0742 15.4511C40.0519 12.6247 37.1774 10.4217 33.8143 9.12082C30.4512 7.81994 26.7506 7.47957 23.1803 8.14275C19.6101 8.80594 16.3306 10.4429 13.7566 12.8466C11.1826 15.2503 9.42973 18.3128 8.71956 21.6469C8.0094 24.9809 8.37388 28.4368 9.76692 31.5774C11.16 34.718 13.519 37.4023 16.5457 39.2909C19.5724 41.1795 23.1308 42.1875 26.771 42.1875C31.6506 42.1823 36.3288 40.3699 39.7792 37.1477C43.2296 33.9255 45.1705 29.5568 45.1761 25Z" fill="#E91E8C"/>
</svg>
