<svg width="50" height="53" viewBox="0 0 50 53" fill="none" xmlns="http://www.w3.org/2000/svg">
<path d="M15.2062 28.5812L14.5372 29.25L15.2062 29.9188C15.2251 29.9377 15.2401 29.9601 15.2503 29.9847C15.2605 30.0094 15.2657 30.0358 15.2657 30.0625C15.2657 30.0892 15.2605 30.1156 15.2503 30.1403C15.2401 30.1649 15.2251 30.1873 15.2062 30.2062C15.1873 30.2251 15.1649 30.2401 15.1403 30.2503C15.1156 30.2605 15.0892 30.2657 15.0625 30.2657C15.0358 30.2657 15.0094 30.2605 14.9847 30.2503C14.9601 30.2401 14.9377 30.2251 14.9188 30.2062L14.25 29.5372L13.5812 30.2062C13.5623 30.2251 13.5399 30.2401 13.5153 30.2503C13.4906 30.2605 13.4642 30.2657 13.4375 30.2657C13.4108 30.2657 13.3844 30.2605 13.3597 30.2503C13.3351 30.2401 13.3127 30.2251 13.2938 30.2062C13.2749 30.1873 13.2599 30.1649 13.2497 30.1403C13.2395 30.1156 13.2343 30.0892 13.2343 30.0625C13.2343 30.0358 13.2395 30.0094 13.2497 29.9847C13.2599 29.9601 13.2749 29.9377 13.2938 29.9188L13.9628 29.25L13.2938 28.5812C13.2557 28.5431 13.2343 28.4914 13.2343 28.4375C13.2343 28.3836 13.2557 28.3319 13.2938 28.2938C13.3319 28.2557 13.3836 28.2343 13.4375 28.2343C13.4914 28.2343 13.5431 28.2557 13.5812 28.2938L14.25 28.9628L14.9188 28.2938C14.9377 28.2749 14.9601 28.2599 14.9847 28.2497C15.0094 28.2395 15.0358 28.2343 15.0625 28.2343C15.0892 28.2343 15.1156 28.2395 15.1403 28.2497C15.1649 28.2599 15.1873 28.2749 15.2062 28.2938C15.2251 28.3127 15.2401 28.3351 15.2503 28.3597C15.2605 28.3844 15.2657 28.4108 15.2657 28.4375C15.2657 28.4642 15.2605 28.4906 15.2503 28.5153C15.2401 28.5399 15.2251 28.5623 15.2062 28.5812ZM16.8906 29.25C16.8906 29.7723 16.7358 30.2828 16.4456 30.7171C16.1554 31.1513 15.743 31.4898 15.2605 31.6896C14.778 31.8895 14.2471 31.9418 13.7348 31.8399C13.2226 31.738 12.7521 31.4865 12.3828 31.1172C12.0135 30.7479 11.762 30.2774 11.6601 29.7652C11.5582 29.2529 11.6105 28.722 11.8104 28.2395C12.0102 27.757 12.3487 27.3446 12.7829 27.0544C13.2172 26.7642 13.7277 26.6094 14.25 26.6094C14.9501 26.6101 15.6213 26.8886 16.1164 27.3836C16.6114 27.8787 16.8899 28.5499 16.8906 29.25ZM16.4844 29.25C16.4844 28.8081 16.3533 28.3761 16.1078 28.0086C15.8623 27.6412 15.5133 27.3548 15.1051 27.1857C14.6968 27.0166 14.2475 26.9723 13.8141 27.0586C13.3807 27.1448 12.9825 27.3576 12.6701 27.6701C12.3576 27.9825 12.1448 28.3807 12.0586 28.8141C11.9723 29.2475 12.0166 29.6968 12.1857 30.1051C12.3548 30.5133 12.6412 30.8623 13.0086 31.1078C13.3761 31.3533 13.8081 31.4844 14.25 31.4844C14.8424 31.4837 15.4103 31.2481 15.8292 30.8292C16.2481 30.4103 16.4837 29.8424 16.4844 29.25Z" fill="#E91E8C"/>
<path d="M15.4093 22.4969C15.4282 22.5158 15.4432 22.5382 15.4534 22.5628C15.4636 22.5875 15.4689 22.6139 15.4689 22.6406C15.4689 22.6673 15.4636 22.6938 15.4534 22.7184C15.4432 22.7431 15.4282 22.7655 15.4093 22.7843L13.9875 24.2062C13.9686 24.2251 13.9462 24.2401 13.9215 24.2503C13.8969 24.2605 13.8704 24.2658 13.8438 24.2658C13.8171 24.2658 13.7906 24.2605 13.766 24.2503C13.7413 24.2401 13.7189 24.2251 13.7 24.2062L13.0907 23.5968C13.0526 23.5587 13.0311 23.507 13.0311 23.4531C13.0311 23.3992 13.0526 23.3475 13.0907 23.3094C13.1288 23.2713 13.1805 23.2499 13.2344 23.2499C13.2883 23.2499 13.34 23.2713 13.3781 23.3094L13.8438 23.7753L15.1219 22.4969C15.1408 22.478 15.1632 22.463 15.1878 22.4528C15.2125 22.4426 15.2389 22.4373 15.2656 22.4373C15.2923 22.4373 15.3188 22.4426 15.3434 22.4528C15.3681 22.463 15.3905 22.478 15.4093 22.4969ZM16.8906 23.25C16.8906 23.7723 16.7358 24.2828 16.4456 24.7171C16.1554 25.1513 15.743 25.4898 15.2605 25.6896C14.778 25.8895 14.2471 25.9418 13.7348 25.8399C13.2226 25.738 12.7521 25.4865 12.3828 25.1172C12.0135 24.7479 11.762 24.2774 11.6601 23.7652C11.5582 23.2529 11.6105 22.722 11.8104 22.2395C12.0102 21.757 12.3487 21.3446 12.7829 21.0544C13.2172 20.7642 13.7277 20.6094 14.25 20.6094C14.9501 20.6101 15.6213 20.8886 16.1164 21.3836C16.6114 21.8787 16.8899 22.5499 16.8906 23.25ZM16.4844 23.25C16.4844 22.8081 16.3533 22.3761 16.1078 22.0086C15.8623 21.6412 15.5133 21.3548 15.1051 21.1857C14.6968 21.0166 14.2475 20.9723 13.8141 21.0586C13.3807 21.1448 12.9825 21.3576 12.6701 21.6701C12.3576 21.9825 12.1448 22.3807 12.0586 22.8141C11.9723 23.2475 12.0166 23.6968 12.1857 24.1051C12.3548 24.5133 12.6412 24.8623 13.0086 25.1078C13.3761 25.3533 13.8081 25.4844 14.25 25.4844C14.8424 25.4837 15.4103 25.2481 15.8292 24.8292C16.2481 24.4103 16.4837 23.8424 16.4844 23.25Z" fill="#E91E8C"/>
<path d="M32.8125 29.6875C32.8125 30.1019 32.6479 30.4993 32.3549 30.7923C32.0618 31.0853 31.6644 31.25 31.25 31.25H18.75C18.3356 31.25 17.9382 31.0853 17.6451 30.7923C17.3521 30.4993 17.1875 30.1019 17.1875 29.6875C17.1875 29.2731 17.3521 28.8756 17.6451 28.5826C17.9382 28.2896 18.3356 28.125 18.75 28.125H31.25C31.6644 28.125 32.0618 28.2896 32.3549 28.5826C32.6479 28.8756 32.8125 29.2731 32.8125 29.6875ZM31.25 21.875H18.75C18.3356 21.875 17.9382 22.0396 17.6451 22.3326C17.3521 22.6256 17.1875 23.0231 17.1875 23.4375C17.1875 23.8519 17.3521 24.2493 17.6451 24.5423C17.9382 24.8353 18.3356 25 18.75 25H31.25C31.6644 25 32.0618 24.8353 32.3549 24.5423C32.6479 24.2493 32.8125 23.8519 32.8125 23.4375C32.8125 23.0231 32.6479 22.6256 32.3549 22.3326C32.0618 22.0396 31.6644 21.875 31.25 21.875ZM42.1875 9.37496V42.1875C42.1875 43.0163 41.8583 43.8111 41.2722 44.3972C40.6862 44.9832 39.8913 45.3125 39.0625 45.3125H10.9375C10.1087 45.3125 9.31384 44.9832 8.72779 44.3972C8.14174 43.8111 7.8125 43.0163 7.8125 42.1875V9.37496C7.8125 8.54616 8.14174 7.7513 8.72779 7.16525C9.31384 6.5792 10.1087 6.24996 10.9375 6.24996H18.0195C18.8975 5.267 19.9731 4.48054 21.176 3.94207C22.379 3.40359 23.6821 3.12524 25 3.12524C26.3179 3.12524 27.621 3.40359 28.824 3.94207C30.0269 4.48054 31.1025 5.267 31.9805 6.24996H39.0625C39.8913 6.24996 40.6862 6.5792 41.2722 7.16525C41.8583 7.7513 42.1875 8.54616 42.1875 9.37496ZM18.75 12.5H31.25C31.25 10.8424 30.5915 9.25265 29.4194 8.08054C28.2473 6.90844 26.6576 6.24996 25 6.24996C23.3424 6.24996 21.7527 6.90844 20.5806 8.08054C19.4085 9.25265 18.75 10.8424 18.75 12.5ZM39.0625 9.37496H33.8379C34.1933 10.3785 34.375 11.4353 34.375 12.5V14.0625C34.375 14.4769 34.2104 14.8743 33.9174 15.1673C33.6243 15.4603 33.2269 15.625 32.8125 15.625H17.1875C16.7731 15.625 16.3757 15.4603 16.0826 15.1673C15.7896 14.8743 15.625 14.4769 15.625 14.0625V12.5C15.625 11.4353 15.8067 10.3785 16.1621 9.37496H10.9375V42.1875H39.0625V9.37496Z" fill="#E91E8C"/>
<rect x="27" y="33" width="18" height="14" fill="white"/>
<path d="M35.3281 39.7188C35.3281 39.487 35.3969 39.2604 35.5256 39.0677C35.6544 38.875 35.8374 38.7248 36.0515 38.6361C36.2657 38.5474 36.5013 38.5242 36.7286 38.5694C36.9559 38.6146 37.1648 38.7262 37.3286 38.8901C37.4925 39.054 37.6041 39.2628 37.6494 39.4901C37.6946 39.7174 37.6714 39.9531 37.5827 40.1672C37.494 40.3813 37.3438 40.5644 37.1511 40.6931C36.9583 40.8219 36.7318 40.8906 36.5 40.8906C36.1892 40.8906 35.8911 40.7672 35.6714 40.5474C35.4516 40.3276 35.3281 40.0296 35.3281 39.7188ZM32.2031 40.8906C32.4349 40.8906 32.6615 40.8219 32.8542 40.6931C33.0469 40.5644 33.1971 40.3813 33.2858 40.1672C33.3745 39.9531 33.3977 39.7174 33.3525 39.4901C33.3073 39.2628 33.1957 39.054 33.0318 38.8901C32.8679 38.7262 32.6591 38.6146 32.4317 38.5694C32.2044 38.5242 31.9688 38.5474 31.7547 38.6361C31.5405 38.7248 31.3575 38.875 31.2287 39.0677C31.1 39.2604 31.0312 39.487 31.0312 39.7188C31.0312 40.0296 31.1547 40.3276 31.3745 40.5474C31.5943 40.7672 31.8923 40.8906 32.2031 40.8906ZM40.7969 40.8906C41.0287 40.8906 41.2552 40.8219 41.4479 40.6931C41.6406 40.5644 41.7908 40.3813 41.8795 40.1672C41.9682 39.9531 41.9915 39.7174 41.9462 39.4901C41.901 39.2628 41.7894 39.054 41.6255 38.8901C41.4616 38.7262 41.2528 38.6146 41.0255 38.5694C40.7982 38.5242 40.5626 38.5474 40.3484 38.6361C40.1343 38.7248 39.9513 38.875 39.8225 39.0677C39.6937 39.2604 39.625 39.487 39.625 39.7188C39.625 40.0296 39.7485 40.3276 39.9682 40.5474C40.188 40.7672 40.4861 40.8906 40.7969 40.8906ZM46.6562 33.4688V45.9688C46.6562 46.3832 46.4916 46.7806 46.1986 47.0736C45.9056 47.3666 45.5082 47.5312 45.0938 47.5312H39.1924L37.8564 49.8691C37.7198 50.1082 37.5223 50.3069 37.2841 50.4451C37.0459 50.5833 36.7754 50.6561 36.5 50.6561C36.2246 50.6561 35.9541 50.5833 35.7159 50.4451C35.4777 50.3069 35.2802 50.1082 35.1436 49.8691L33.8076 47.5312H27.9062C27.4918 47.5312 27.0944 47.3666 26.8014 47.0736C26.5084 46.7806 26.3438 46.3832 26.3438 45.9688V33.4688C26.3438 33.0543 26.5084 32.6569 26.8014 32.3639C27.0944 32.0709 27.4918 31.9062 27.9062 31.9062H45.0938C45.5082 31.9062 45.9056 32.0709 46.1986 32.3639C46.4916 32.6569 46.6562 33.0543 46.6562 33.4688ZM45.0938 33.4688H27.9062V45.9688H34.2607C34.3991 45.9675 34.5352 46.003 34.6553 46.0717C34.7754 46.1403 34.8752 46.2396 34.9443 46.3594L36.5068 49.0938L38.0693 46.3594C38.1385 46.2396 38.2382 46.1403 38.3583 46.0717C38.4784 46.003 38.6146 45.9675 38.7529 45.9688H45.0938V33.4688Z" fill="#E91E8C"/>
</svg>
