<svg width="60" height="60" viewBox="0 0 60 60" fill="none" xmlns="http://www.w3.org/2000/svg">
<path d="M14.5833 16.6667C14.5833 16.1141 14.8028 15.5842 15.1935 15.1935C15.5842 14.8028 16.1141 14.5833 16.6667 14.5833H33.3333C33.8859 14.5833 34.4158 14.8028 34.8065 15.1935C35.1972 15.5842 35.4167 16.1141 35.4167 16.6667C35.4167 17.2192 35.1972 17.7491 34.8065 18.1398C34.4158 18.5305 33.8859 18.75 33.3333 18.75H16.6667C16.1141 18.75 15.5842 18.5305 15.1935 18.1398C14.8028 17.7491 14.5833 17.2192 14.5833 16.6667ZM16.6667 27.0833H33.3333C33.8859 27.0833 34.4158 26.8638 34.8065 26.4731C35.1972 26.0824 35.4167 25.5525 35.4167 25C35.4167 24.4475 35.1972 23.9176 34.8065 23.5269C34.4158 23.1362 33.8859 22.9167 33.3333 22.9167H16.6667C16.1141 22.9167 15.5842 23.1362 15.1935 23.5269C14.8028 23.9176 14.5833 24.4475 14.5833 25C14.5833 25.5525 14.8028 26.0824 15.1935 26.4731C15.5842 26.8638 16.1141 27.0833 16.6667 27.0833ZM25 31.25H16.6667C16.1141 31.25 15.5842 31.4695 15.1935 31.8602C14.8028 32.2509 14.5833 32.7808 14.5833 33.3333C14.5833 33.8859 14.8028 34.4158 15.1935 34.8065C15.5842 35.1972 16.1141 35.4167 16.6667 35.4167H25C25.5525 35.4167 26.0824 35.1972 26.4731 34.8065C26.8638 34.4158 27.0833 33.8859 27.0833 33.3333C27.0833 32.7808 26.8638 32.2509 26.4731 31.8602C26.0824 31.4695 25.5525 31.25 25 31.25ZM50 4.16667V32.4713C50.0017 33.0187 49.8947 33.561 49.685 34.0666C49.4753 34.5722 49.1672 35.0311 48.7786 35.4167L35.4167 48.7786C35.0311 49.1672 34.5722 49.4753 34.0666 49.685C33.561 49.8947 33.0187 50.0017 32.4713 50H4.16667C3.0616 50 2.00179 49.561 1.22039 48.7796C0.438986 47.9982 0 46.9384 0 45.8333V4.16667C0 3.0616 0.438986 2.00179 1.22039 1.22039C2.00179 0.438986 3.0616 0 4.16667 0H45.8333C46.9384 0 47.9982 0.438986 48.7796 1.22039C49.561 2.00179 50 3.0616 50 4.16667ZM4.16667 45.8333H31.25V33.3333C31.25 32.7808 31.4695 32.2509 31.8602 31.8602C32.2509 31.4695 32.7808 31.25 33.3333 31.25H45.8333V4.16667H4.16667V45.8333ZM35.4167 35.4167V42.8906L42.888 35.4167H35.4167Z" fill="#E91E8C"/>
<path d="M56.3988 54.8511L49.5533 48.007C51.5374 45.6249 52.5267 42.5697 52.3156 39.4767C52.1044 36.3838 50.709 33.4914 48.4195 31.4011C46.1301 29.3108 43.1229 28.1837 40.0236 28.2541C36.9242 28.3245 33.9714 29.5871 31.7793 31.7793C29.5871 33.9714 28.3245 36.9242 28.2541 40.0236C28.1837 43.1229 29.3108 46.1301 31.4011 48.4195C33.4914 50.709 36.3838 52.1044 39.4767 52.3156C42.5697 52.5267 45.6249 51.5374 48.007 49.5533L54.8511 56.3988C54.9527 56.5004 55.0734 56.581 55.2062 56.636C55.3389 56.691 55.4812 56.7193 55.6249 56.7193C55.7687 56.7193 55.911 56.691 56.0437 56.636C56.1765 56.581 56.2972 56.5004 56.3988 56.3988C56.5004 56.2972 56.581 56.1765 56.636 56.0437C56.691 55.911 56.7193 55.7687 56.7193 55.6249C56.7193 55.4812 56.691 55.3389 56.636 55.2062C56.581 55.0734 56.5004 54.9527 56.3988 54.8511ZM30.4687 40.3124C30.4687 38.3655 31.046 36.4623 32.1277 34.8436C33.2093 33.2248 34.7467 31.9631 36.5454 31.218C38.3441 30.473 40.3234 30.278 42.2329 30.6578C44.1424 31.0377 45.8964 31.9752 47.273 33.3519C48.6497 34.7285 49.5872 36.4825 49.9671 38.392C50.3469 40.3015 50.1519 42.2808 49.4069 44.0795C48.6618 45.8782 47.4001 47.4156 45.7813 48.4972C44.1625 49.5789 42.2594 50.1562 40.3124 50.1562C37.7026 50.1533 35.2005 49.1153 33.3551 47.2698C31.5096 45.4244 30.4716 42.9223 30.4687 40.3124Z" fill="#E91E8C"/>
<circle cx="40" cy="40" r="9.5" fill="white" stroke="white"/>
</svg>
