<svg width="54" height="50" viewBox="0 0 54 50" fill="none" xmlns="http://www.w3.org/2000/svg">
<path d="M45.176 14.0625H27.4633L21.7514 8.72853C21.4418 8.43709 21.0732 8.20602 20.6671 8.04876C20.2611 7.89151 19.8256 7.8112 19.3859 7.81252H8.36591C7.47839 7.81252 6.62723 8.14176 5.99966 8.72781C5.37209 9.31386 5.01953 10.1087 5.01953 10.9375V39.1836C5.02064 39.98 5.3599 40.7434 5.9629 41.3065C6.56591 41.8697 7.38345 42.1865 8.23624 42.1875H45.3622C46.2 42.1865 47.0032 41.8752 47.5956 41.322C48.188 40.7688 48.5213 40.0187 48.5224 39.2363V17.1875C48.5224 16.3587 48.1698 15.5639 47.5423 14.9778C46.9147 14.3918 46.0636 14.0625 45.176 14.0625ZM8.36591 10.9375H19.3859L22.7323 14.0625H8.36591V10.9375ZM45.176 39.0625H8.36591V17.1875H45.176V39.0625Z" fill="#E91E8C"/>
</svg>
