<svg width="650" height="500" viewBox="0 0 650 500" fill="none" xmlns="http://www.w3.org/2000/svg">
<g clip-path="url(#clip0_66_1314)">
<path d="M516.344 55.3263C515.531 54.7465 514.719 54.1964 513.906 53.6358C490.502 37.5498 465.417 24.4817 439.168 14.7016L433.082 104.932H394.499V1.53054C392.07 0.990917 389.624 0.482727 387.175 0.000732422V104.932H341.323C316.081 104.932 291.874 94.1555 274.025 74.974C256.177 55.7925 246.149 29.7767 246.149 2.64997C243.692 3.22016 241.254 3.8305 238.816 4.48364V104.932H201.471L195.673 18.892C168.699 30.0096 143.091 44.6297 119.419 62.427C119.013 62.7273 118.6 63.0382 118.2 63.3368C116.144 64.8867 114.115 66.4672 112.095 68.0677V412.296H222.159L220.214 383.343L209.511 224.376H425.032L414.329 383.343L412.384 412.296H521.229V58.8068C519.61 57.6268 517.981 56.4666 516.344 55.3263ZM238.817 198.123H207.743L202.001 112.813H238.817V198.123ZM387.175 198.123H334.986V196.432C334.986 195.62 334.837 194.815 334.547 194.065C334.257 193.314 333.833 192.632 333.298 192.058C332.763 191.484 332.128 191.029 331.429 190.719C330.73 190.409 329.981 190.25 329.225 190.252H306.537C305.781 190.251 305.033 190.411 304.336 190.721C303.638 191.032 303.004 191.487 302.47 192.061C301.935 192.635 301.512 193.317 301.223 194.067C300.934 194.817 300.786 195.62 300.786 196.432V198.123H246.149V112.813H387.175V198.123ZM394.499 198.123V112.813H432.551L426.809 198.123H394.499Z" fill="#E91E8C" fill-opacity="0.61"/>
<path d="M0 434.339C7.1129 444.555 14.8748 454.229 23.2302 463.292L626.771 464.293C635.126 455.229 642.888 445.555 650.001 435.339L0 434.339Z" fill="#F2F2F2"/>
<path d="M411.188 341.631V427.344C411.189 428.437 411.593 429.484 412.312 430.257C413.031 431.029 414.005 431.463 415.022 431.464H533.21C534.226 431.463 535.201 431.029 535.919 430.257C536.638 429.484 537.042 428.437 537.043 427.344V341.631C537.041 340.539 536.636 339.493 535.917 338.722C535.199 337.951 534.225 337.517 533.21 337.515H415.022C414.006 337.517 413.033 337.951 412.314 338.722C411.596 339.493 411.191 340.539 411.188 341.631Z" fill="#3F3D56"/>
<path d="M413.961 342.696V426.285C413.962 426.869 414.179 427.428 414.563 427.841C414.946 428.253 415.467 428.485 416.01 428.487H532.23C532.773 428.485 533.293 428.253 533.677 427.841C534.061 427.428 534.277 426.869 534.278 426.285V342.696C534.278 342.111 534.062 341.551 533.678 341.137C533.294 340.724 532.773 340.491 532.23 340.489H416.01C415.466 340.491 414.945 340.724 414.561 341.137C414.177 341.551 413.961 342.111 413.961 342.696Z" fill="#7B5EA7"/>
<path d="M408.717 444.06C408.933 444.352 409.208 444.588 409.521 444.75C409.834 444.912 410.178 444.995 410.525 444.994H537.081C537.427 444.993 537.769 444.91 538.081 444.75C538.393 444.589 538.668 444.356 538.886 444.067C539.104 443.779 539.259 443.441 539.34 443.08C539.422 442.718 539.427 442.342 539.356 441.978L537.391 431.95C537.31 431.541 537.135 431.16 536.881 430.842C536.628 430.525 536.305 430.281 535.941 430.132C535.678 430.021 535.398 429.964 535.115 429.964H412.482C412.199 429.964 411.919 430.021 411.655 430.132C411.292 430.281 410.969 430.525 410.715 430.842C410.462 431.16 410.287 431.541 410.205 431.95L408.24 441.978C408.171 442.342 408.177 442.718 408.259 443.079C408.341 443.44 408.497 443.776 408.716 444.064L408.717 444.06Z" fill="#2F2E41"/>
<path d="M413.78 434.279H416.885C417.104 434.279 417.281 434.089 417.281 433.853V432.192C417.281 431.957 417.104 431.766 416.885 431.766H413.78C413.561 431.766 413.384 431.957 413.384 432.192V433.853C413.384 434.089 413.561 434.279 413.78 434.279Z" fill="#3F3D56"/>
<path d="M413.873 438.468H416.978C417.197 438.468 417.374 438.277 417.374 438.042V436.381C417.374 436.146 417.197 435.955 416.978 435.955H413.873C413.654 435.955 413.476 436.146 413.476 436.381V438.042C413.476 438.277 413.654 438.468 413.873 438.468Z" fill="#3F3D56"/>
<path d="M496.436 443.496H466.161C466.041 443.496 465.925 443.444 465.84 443.353C465.755 443.261 465.707 443.137 465.707 443.007V441.471C465.707 441.341 465.755 441.217 465.84 441.126C465.925 441.034 466.041 440.983 466.161 440.983H496.436C496.556 440.983 496.672 441.034 496.757 441.126C496.842 441.217 496.89 441.341 496.89 441.471V443.007C496.89 443.137 496.842 443.261 496.757 443.353C496.672 443.444 496.556 443.496 496.436 443.496Z" fill="#3F3D56"/>
<path d="M434.271 358.778H431.256C430.555 358.778 429.987 359.388 429.987 360.141V360.538C429.987 361.29 430.555 361.901 431.256 361.901H434.271C434.971 361.901 435.539 361.29 435.539 360.538V360.141C435.539 359.388 434.971 358.778 434.271 358.778Z" fill="white"/>
<path d="M464.538 358.778H461.523C460.822 358.778 460.254 359.388 460.254 360.141V360.538C460.254 361.29 460.822 361.901 461.523 361.901H464.538C465.238 361.901 465.806 361.29 465.806 360.538V360.141C465.806 359.388 465.238 358.778 464.538 358.778Z" fill="white"/>
<path d="M473.113 358.778H470.098C469.397 358.778 468.83 359.388 468.83 360.141V360.538C468.83 361.29 469.397 361.901 470.098 361.901H473.113C473.814 361.901 474.381 361.29 474.381 360.538V360.141C474.381 359.388 473.814 358.778 473.113 358.778Z" fill="white"/>
<path d="M456.305 358.517H439.489C438.788 358.517 438.22 359.127 438.22 359.88V360.276C438.22 361.029 438.788 361.639 439.489 361.639H456.305C457.005 361.639 457.573 361.029 457.573 360.276V359.88C457.573 359.127 457.005 358.517 456.305 358.517Z" fill="white"/>
<path d="M496.66 358.517H479.844C479.143 358.517 478.575 359.127 478.575 359.88V360.276C478.575 361.029 479.143 361.639 479.844 361.639H496.66C497.361 361.639 497.928 361.029 497.928 360.276V359.88C497.928 359.127 497.361 358.517 496.66 358.517Z" fill="white"/>
<path d="M442.342 365.825H439.327C438.626 365.825 438.059 366.435 438.059 367.188V367.584C438.059 368.337 438.626 368.947 439.327 368.947H442.342C443.043 368.947 443.61 368.337 443.61 367.584V367.188C443.61 366.435 443.043 365.825 442.342 365.825Z" fill="white"/>
<path d="M472.608 365.825H469.593C468.893 365.825 468.325 366.435 468.325 367.188V367.584C468.325 368.337 468.893 368.947 469.593 368.947H472.608C473.309 368.947 473.877 368.337 473.877 367.584V367.188C473.877 366.435 473.309 365.825 472.608 365.825Z" fill="white"/>
<path d="M481.184 365.825H478.169C477.469 365.825 476.901 366.435 476.901 367.188V367.584C476.901 368.337 477.469 368.947 478.169 368.947H481.184C481.885 368.947 482.453 368.337 482.453 367.584V367.188C482.453 366.435 481.885 365.825 481.184 365.825Z" fill="white"/>
<path d="M464.376 365.564H447.56C446.859 365.564 446.292 366.175 446.292 366.927V367.324C446.292 368.077 446.859 368.687 447.56 368.687H464.376C465.077 368.687 465.644 368.077 465.644 367.324V366.927C465.644 366.175 465.077 365.564 464.376 365.564Z" fill="white"/>
<path d="M504.731 365.564H487.914C487.214 365.564 486.646 366.175 486.646 366.927V367.324C486.646 368.077 487.214 368.687 487.914 368.687H504.731C505.431 368.687 505.999 368.077 505.999 367.324V366.927C505.999 366.175 505.431 365.564 504.731 365.564Z" fill="white"/>
<path d="M450.413 372.873H447.398C446.698 372.873 446.13 373.483 446.13 374.236V374.632C446.13 375.385 446.698 375.995 447.398 375.995H450.413C451.114 375.995 451.682 375.385 451.682 374.632V374.236C451.682 373.483 451.114 372.873 450.413 372.873Z" fill="white"/>
<path d="M480.679 372.873H477.664C476.963 372.873 476.396 373.483 476.396 374.236V374.632C476.396 375.385 476.963 375.995 477.664 375.995H480.679C481.379 375.995 481.947 375.385 481.947 374.632V374.236C481.947 373.483 481.379 372.873 480.679 372.873Z" fill="white"/>
<path d="M489.255 372.873H486.24C485.539 372.873 484.971 373.483 484.971 374.236V374.632C484.971 375.385 485.539 375.995 486.24 375.995H489.255C489.955 375.995 490.523 375.385 490.523 374.632V374.236C490.523 373.483 489.955 372.873 489.255 372.873Z" fill="white"/>
<path d="M472.447 372.612H455.631C454.93 372.612 454.362 373.222 454.362 373.975V374.371C454.362 375.124 454.93 375.734 455.631 375.734H472.447C473.147 375.734 473.715 375.124 473.715 374.371V373.975C473.715 373.222 473.147 372.612 472.447 372.612Z" fill="white"/>
<path d="M512.802 372.612H495.986C495.285 372.612 494.717 373.222 494.717 373.975V374.371C494.717 375.124 495.285 375.734 495.986 375.734H512.802C513.502 375.734 514.07 375.124 514.07 374.371V373.975C514.07 373.222 513.502 372.612 512.802 372.612Z" fill="white"/>
<path d="M458.484 379.919H455.469C454.768 379.919 454.2 380.53 454.2 381.282V381.679C454.2 382.432 454.768 383.042 455.469 383.042H458.484C459.184 383.042 459.752 382.432 459.752 381.679V381.282C459.752 380.53 459.184 379.919 458.484 379.919Z" fill="white"/>
<path d="M488.751 379.919H485.735C485.035 379.919 484.467 380.53 484.467 381.282V381.679C484.467 382.432 485.035 383.042 485.735 383.042H488.751C489.451 383.042 490.019 382.432 490.019 381.679V381.282C490.019 380.53 489.451 379.919 488.751 379.919Z" fill="white"/>
<path d="M497.325 379.919H494.31C493.61 379.919 493.042 380.53 493.042 381.282V381.679C493.042 382.432 493.61 383.042 494.31 383.042H497.325C498.026 383.042 498.594 382.432 498.594 381.679V381.282C498.594 380.53 498.026 379.919 497.325 379.919Z" fill="white"/>
<path d="M480.518 379.659H463.702C463.001 379.659 462.434 380.27 462.434 381.022V381.419C462.434 382.172 463.001 382.782 463.702 382.782H480.518C481.219 382.782 481.787 382.172 481.787 381.419V381.022C481.787 380.27 481.219 379.659 480.518 379.659Z" fill="white"/>
<path d="M464.538 407.943H461.523C460.822 407.943 460.254 408.553 460.254 409.306V409.703C460.254 410.455 460.822 411.066 461.523 411.066H464.538C465.238 411.066 465.806 410.455 465.806 409.703V409.306C465.806 408.553 465.238 407.943 464.538 407.943Z" fill="white"/>
<path d="M473.113 407.943H470.098C469.397 407.943 468.83 408.553 468.83 409.306V409.703C468.83 410.455 469.397 411.066 470.098 411.066H473.113C473.814 411.066 474.381 410.455 474.381 409.703V409.306C474.381 408.553 473.814 407.943 473.113 407.943Z" fill="white"/>
<path d="M496.66 408.203H479.844C479.143 408.203 478.575 408.814 478.575 409.567V409.963C478.575 410.716 479.143 411.326 479.844 411.326H496.66C497.361 411.326 497.928 410.716 497.928 409.963V409.567C497.928 408.814 497.361 408.203 496.66 408.203Z" fill="white"/>
<path d="M434.271 407.943H431.256C430.555 407.943 429.987 408.553 429.987 409.306V409.703C429.987 410.455 430.555 411.066 431.256 411.066H434.271C434.971 411.066 435.539 410.455 435.539 409.703V409.306C435.539 408.553 434.971 407.943 434.271 407.943Z" fill="white"/>
<path d="M456.305 408.203H439.489C438.788 408.203 438.22 408.814 438.22 409.567V409.963C438.22 410.716 438.788 411.326 439.489 411.326H456.305C457.005 411.326 457.573 410.716 457.573 409.963V409.567C457.573 408.814 457.005 408.203 456.305 408.203Z" fill="white"/>
<path d="M442.342 400.896H439.327C438.626 400.896 438.059 401.506 438.059 402.259V402.655C438.059 403.408 438.626 404.018 439.327 404.018H442.342C443.043 404.018 443.61 403.408 443.61 402.655V402.259C443.61 401.506 443.043 400.896 442.342 400.896Z" fill="white"/>
<path d="M472.608 400.896H469.593C468.893 400.896 468.325 401.506 468.325 402.259V402.655C468.325 403.408 468.893 404.018 469.593 404.018H472.608C473.309 404.018 473.877 403.408 473.877 402.655V402.259C473.877 401.506 473.309 400.896 472.608 400.896Z" fill="white"/>
<path d="M481.184 400.896H478.169C477.469 400.896 476.901 401.506 476.901 402.259V402.655C476.901 403.408 477.469 404.018 478.169 404.018H481.184C481.885 404.018 482.453 403.408 482.453 402.655V402.259C482.453 401.506 481.885 400.896 481.184 400.896Z" fill="white"/>
<path d="M464.376 401.156H447.56C446.859 401.156 446.292 401.766 446.292 402.519V402.915C446.292 403.668 446.859 404.278 447.56 404.278H464.376C465.077 404.278 465.644 403.668 465.644 402.915V402.519C465.644 401.766 465.077 401.156 464.376 401.156Z" fill="white"/>
<path d="M450.413 393.849H447.398C446.698 393.849 446.13 394.459 446.13 395.212V395.608C446.13 396.361 446.698 396.971 447.398 396.971H450.413C451.114 396.971 451.682 396.361 451.682 395.608V395.212C451.682 394.459 451.114 393.849 450.413 393.849Z" fill="white"/>
<path d="M480.679 393.849H477.664C476.963 393.849 476.396 394.459 476.396 395.212V395.608C476.396 396.361 476.963 396.971 477.664 396.971H480.679C481.379 396.971 481.947 396.361 481.947 395.608V395.212C481.947 394.459 481.379 393.849 480.679 393.849Z" fill="white"/>
<path d="M489.255 393.849H486.24C485.539 393.849 484.971 394.459 484.971 395.212V395.608C484.971 396.361 485.539 396.971 486.24 396.971H489.255C489.955 396.971 490.523 396.361 490.523 395.608V395.212C490.523 394.459 489.955 393.849 489.255 393.849Z" fill="white"/>
<path d="M472.447 394.109H455.631C454.93 394.109 454.362 394.719 454.362 395.472V395.868C454.362 396.621 454.93 397.231 455.631 397.231H472.447C473.147 397.231 473.715 396.621 473.715 395.868V395.472C473.715 394.719 473.147 394.109 472.447 394.109Z" fill="white"/>
<path d="M458.484 386.801H455.469C454.768 386.801 454.2 387.411 454.2 388.164V388.56C454.2 389.313 454.768 389.924 455.469 389.924H458.484C459.184 389.924 459.752 389.313 459.752 388.56V388.164C459.752 387.411 459.184 386.801 458.484 386.801Z" fill="white"/>
<path d="M488.751 386.801H485.735C485.035 386.801 484.467 387.411 484.467 388.164V388.56C484.467 389.313 485.035 389.924 485.735 389.924H488.751C489.451 389.924 490.019 389.313 490.019 388.56V388.164C490.019 387.411 489.451 386.801 488.751 386.801Z" fill="white"/>
<path d="M497.325 386.801H494.31C493.61 386.801 493.042 387.411 493.042 388.164V388.56C493.042 389.313 493.61 389.924 494.31 389.924H497.325C498.026 389.924 498.594 389.313 498.594 388.56V388.164C498.594 387.411 498.026 386.801 497.325 386.801Z" fill="white"/>
<path d="M480.518 387.061H463.702C463.001 387.061 462.434 387.672 462.434 388.424V388.821C462.434 389.574 463.001 390.184 463.702 390.184H480.518C481.219 390.184 481.787 389.574 481.787 388.821V388.424C481.787 387.672 481.219 387.061 480.518 387.061Z" fill="white"/>
<path d="M128.524 337.519V440.09H195.389V337.519C195.39 336.781 195.171 336.062 194.764 335.468C194.357 334.874 193.784 334.436 193.128 334.218C192.819 334.108 192.495 334.054 192.169 334.058H131.753C131.33 334.057 130.91 334.146 130.519 334.32C130.127 334.493 129.771 334.748 129.472 335.069C129.172 335.391 128.934 335.773 128.771 336.193C128.609 336.613 128.525 337.064 128.524 337.519ZM154.622 372.763C154.622 370.728 155.374 368.777 156.713 367.339C158.051 365.9 159.867 365.092 161.76 365.092C163.653 365.092 165.468 365.9 166.807 367.339C168.146 368.777 168.898 370.728 168.898 372.763V384.664C168.898 386.699 168.146 388.65 166.807 390.088C165.468 391.527 163.653 392.335 161.76 392.335C159.867 392.335 158.051 391.527 156.713 390.088C155.374 388.65 154.622 386.699 154.622 384.664V372.763Z" fill="#2F2E41"/>
<path d="M128.32 436.81V446.701C128.321 447.213 128.511 447.705 128.847 448.068C129.183 448.431 129.639 448.637 130.116 448.641H193.798C194.276 448.639 194.733 448.433 195.069 448.07C195.406 447.706 195.595 447.214 195.595 446.701V436.81H128.32Z" fill="#3F3D56"/>
<path d="M23.3374 182.982V370.263C23.3391 372.649 24.2221 374.938 25.7924 376.625C27.3626 378.313 29.4919 379.262 31.7127 379.264H289.959C292.18 379.262 294.309 378.313 295.88 376.625C297.45 374.938 298.333 372.649 298.335 370.263V182.982C298.33 180.597 297.446 178.311 295.876 176.625C294.306 174.94 292.178 173.991 289.959 173.988H31.7127C29.4934 173.991 27.3657 174.939 25.7958 176.625C24.226 178.311 23.3419 180.597 23.3374 182.982Z" fill="#3F3D56"/>
<path d="M29.3955 185.312V367.953C29.3977 369.228 29.8699 370.45 30.7089 371.351C31.5478 372.253 32.6851 372.761 33.8716 372.763H287.808C288.994 372.761 290.132 372.253 290.971 371.351C291.81 370.45 292.282 369.228 292.284 367.953V185.312C292.284 184.036 291.813 182.811 290.974 181.907C290.134 181.003 288.996 180.494 287.808 180.491H33.8716C32.6836 180.494 31.5451 181.003 30.7059 181.907C29.8668 182.811 29.3955 184.036 29.3955 185.312Z" fill="white"/>
<path d="M76.5236 447.972C76.7821 448.32 77.1106 448.6 77.4845 448.793C77.8584 448.985 78.268 449.084 78.6824 449.081H229.756C230.169 449.081 230.577 448.981 230.95 448.79C231.323 448.598 231.651 448.32 231.911 447.976C232.171 447.631 232.357 447.228 232.454 446.797C232.551 446.365 232.558 445.916 232.473 445.481L230.128 433.51C230.031 433.022 229.822 432.568 229.52 432.189C229.217 431.81 228.832 431.518 228.398 431.34C228.084 431.208 227.749 431.14 227.411 431.14H81.0167C80.6792 431.14 80.3446 431.208 80.0304 431.34C79.5964 431.518 79.2107 431.81 78.9084 432.189C78.6062 432.568 78.3969 433.022 78.2997 433.51L75.9549 445.481C75.8716 445.916 75.8794 446.365 75.9778 446.795C76.0762 447.226 76.2626 447.628 76.5236 447.972Z" fill="#2F2E41"/>
<path d="M279.567 205.651H41.9598C41.7092 205.651 41.4689 205.544 41.2917 205.354C41.1145 205.163 41.0149 204.905 41.0149 204.636C41.0149 204.366 41.1145 204.108 41.2917 203.918C41.4689 203.727 41.7092 203.62 41.9598 203.62H279.567C279.818 203.62 280.058 203.727 280.236 203.918C280.413 204.108 280.512 204.366 280.512 204.636C280.512 204.905 280.413 205.163 280.236 205.354C280.058 205.544 279.817 205.651 279.567 205.651Z" fill="#3F3D56"/>
<path d="M58.1336 198.434C61.1917 198.434 63.6708 195.711 63.6708 192.351C63.6708 188.991 61.1917 186.267 58.1336 186.267C55.0755 186.267 52.5964 188.991 52.5964 192.351C52.5964 195.711 55.0755 198.434 58.1336 198.434Z" fill="#3F3D56"/>
<path d="M77.263 198.434C80.3211 198.434 82.8002 195.711 82.8002 192.351C82.8002 188.991 80.3211 186.267 77.263 186.267C74.2049 186.267 71.7258 188.991 71.7258 192.351C71.7258 195.711 74.2049 198.434 77.263 198.434Z" fill="#3F3D56"/>
<path d="M96.3927 198.434C99.4508 198.434 101.93 195.711 101.93 192.351C101.93 188.991 99.4508 186.267 96.3927 186.267C93.3346 186.267 90.8555 188.991 90.8555 192.351C90.8555 195.711 93.3346 198.434 96.3927 198.434Z" fill="#3F3D56"/>
<path d="M419.164 431.048H531.762L533.979 439.049H419.164V431.048Z" fill="#3F3D56"/>
<path d="M268.048 187.772H254.46C254.193 187.78 253.938 187.9 253.752 188.106C253.565 188.313 253.461 188.589 253.461 188.877C253.461 189.165 253.565 189.441 253.752 189.648C253.938 189.854 254.193 189.974 254.46 189.982H268.047C268.184 189.986 268.321 189.961 268.449 189.907C268.578 189.853 268.694 189.773 268.793 189.67C268.892 189.566 268.97 189.443 269.023 189.307C269.077 189.171 269.105 189.025 269.105 188.877C269.105 188.729 269.077 188.583 269.023 188.447C268.97 188.311 268.892 188.187 268.793 188.084C268.694 187.981 268.578 187.901 268.449 187.847C268.321 187.793 268.184 187.768 268.047 187.772H268.048Z" fill="#3F3D56"/>
<path d="M268.047 191.922H254.46C254.187 191.922 253.926 192.039 253.733 192.246C253.54 192.453 253.432 192.734 253.432 193.028C253.432 193.321 253.54 193.602 253.733 193.809C253.926 194.017 254.187 194.133 254.46 194.133H268.047C268.184 194.137 268.321 194.112 268.449 194.058C268.577 194.004 268.694 193.924 268.793 193.821C268.891 193.718 268.97 193.594 269.023 193.458C269.077 193.322 269.104 193.176 269.104 193.028C269.104 192.88 269.077 192.734 269.023 192.598C268.97 192.462 268.891 192.338 268.793 192.235C268.694 192.132 268.577 192.052 268.449 191.998C268.321 191.944 268.184 191.919 268.047 191.923V191.922Z" fill="#3F3D56"/>
<path d="M268.048 196.073H254.46C254.193 196.081 253.938 196.201 253.752 196.408C253.565 196.614 253.461 196.891 253.461 197.178C253.461 197.466 253.565 197.743 253.752 197.949C253.938 198.155 254.193 198.275 254.46 198.283H268.047C268.184 198.287 268.321 198.262 268.449 198.208C268.578 198.155 268.694 198.074 268.793 197.971C268.892 197.868 268.97 197.745 269.023 197.609C269.077 197.472 269.105 197.326 269.105 197.178C269.105 197.031 269.077 196.884 269.023 196.748C268.97 196.612 268.892 196.489 268.793 196.386C268.694 196.283 268.578 196.202 268.449 196.148C268.321 196.095 268.184 196.069 268.047 196.073H268.048Z" fill="#3F3D56"/>
<path d="M578.958 441.177C579.318 442.306 580.003 443.283 580.913 443.968C581.823 444.653 582.911 445.01 584.022 444.989L605.72 444.389C606.839 444.365 607.921 443.953 608.804 443.215C609.687 442.476 610.324 441.449 610.619 440.289L613.689 405.003C614.779 405.534 615.965 405.796 617.16 405.77C619.258 405.713 621.25 404.763 622.696 403.129C624.142 401.495 624.925 399.31 624.872 397.055C624.82 394.801 623.936 392.661 622.415 391.107C620.894 389.552 618.861 388.711 616.763 388.768C616.285 388.766 615.809 388.819 615.341 388.926C614.833 388.335 614.215 387.865 613.528 387.547C612.84 387.228 612.098 387.067 611.349 387.075L577.973 388.002C577.696 388.013 577.421 388.05 577.15 388.112C576.418 388.258 575.724 388.572 575.114 389.031C574.504 389.49 573.993 390.084 573.615 390.774C573.237 391.463 573.001 392.231 572.922 393.027C572.843 393.822 572.924 394.627 573.159 395.386L578.958 441.177ZM614.319 402.608L616.504 394.2C616.752 393.229 616.758 392.205 616.521 391.231C616.627 391.231 616.721 391.177 616.827 391.177C618.327 391.139 619.781 391.743 620.867 392.857C621.953 393.971 622.583 395.503 622.618 397.116C622.653 398.728 622.09 400.29 621.054 401.457C620.018 402.624 618.592 403.301 617.091 403.339C616.123 403.372 615.164 403.12 614.319 402.61V402.608Z" fill="#E91E8C"/>
<path d="M577.15 388.115C577.861 392.481 585.856 395.556 595.468 395.022C604.308 394.586 611.536 391.249 612.861 387.296C612.371 387.14 611.861 387.067 611.35 387.079L577.974 388.006C577.697 388.017 577.421 388.053 577.15 388.116L577.15 388.115Z" fill="#D6D6E3"/>
<path d="M125.09 243.028H195.816C197.297 243.028 198.717 243.66 199.764 244.785C200.812 245.91 201.4 247.437 201.4 249.028C201.4 250.62 200.812 252.146 199.764 253.271C198.717 254.396 197.297 255.029 195.816 255.029H125.09C123.609 255.029 122.189 254.396 121.142 253.271C120.095 252.146 119.506 250.62 119.506 249.028C119.506 247.437 120.095 245.91 121.142 244.785C122.189 243.66 123.609 243.028 125.09 243.028Z" fill="#7B5EA7"/>
<path d="M106.478 271.031H214.429C215.91 271.031 217.33 271.663 218.377 272.788C219.424 273.913 220.013 275.44 220.013 277.031C220.013 278.622 219.424 280.149 218.377 281.274C217.33 282.399 215.91 283.031 214.429 283.031H106.478C104.997 283.031 103.577 282.399 102.53 281.274C101.483 280.149 100.895 278.622 100.895 277.031C100.895 275.44 101.483 273.913 102.53 272.788C103.577 271.663 104.997 271.031 106.478 271.031Z" fill="#E91E8C"/>
<path d="M106.478 299.034H214.429C215.91 299.034 217.33 299.666 218.377 300.792C219.424 301.917 220.013 303.443 220.013 305.035C220.013 306.626 219.424 308.152 218.377 309.278C217.33 310.403 215.91 311.035 214.429 311.035H106.478C104.997 311.035 103.577 310.403 102.53 309.278C101.483 308.152 100.895 306.626 100.895 305.035C100.895 303.443 101.483 301.917 102.53 300.792C103.577 299.666 104.997 299.034 106.478 299.034Z" fill="#E91E8C"/>
<path d="M350.232 363.195C350.232 363.195 278.023 372.553 284.918 363.195C287.415 359.809 288.104 349.78 287.966 338.354C287.922 334.883 287.803 331.289 287.641 327.709C286.842 310.551 284.92 293.782 284.92 293.782C284.92 293.782 348.057 261.805 340.8 287.153C337.897 297.393 338.85 311.777 341.054 325.275C341.7 329.214 342.448 333.074 343.232 336.74C345.144 345.681 347.48 354.51 350.232 363.195Z" fill="#ED9DA0"/>
<path d="M213.173 499.969V499.314L340.624 497.824L418.276 497.044H418.494L418.412 498.199L418.521 497.044H418.659V496.912L419.654 486.422L420.031 482.453L420.147 481.213L420.249 480.175L424.734 464.101L429.219 448.05L432.993 434.534L438.755 413.882C438.755 413.882 435.49 405.692 433.675 403.353C431.861 401.014 424.738 384.269 424.738 384.269C424.738 384.269 414.563 369.17 407.792 367.345C404.955 366.565 399.352 365.528 393.401 364.225C391.173 363.741 374.098 358.441 373.081 357.705C367.747 353.501 354.379 353.026 353.864 353.026C353.863 353.007 353.863 352.989 353.864 352.97V352.901C353.883 352.574 353.883 352.245 353.864 351.918C353.872 351.553 353.85 351.188 353.799 350.827C353.807 350.694 353.789 350.562 353.748 350.437C353.711 350.155 353.667 349.859 353.603 349.548C353.581 349.408 353.552 349.271 353.516 349.135C353.305 348.195 353.001 347.282 352.608 346.413C352.557 346.288 352.492 346.155 352.434 346.03C352.079 345.31 351.666 344.624 351.201 343.979C351.107 343.847 351.005 343.706 350.896 343.574C350.302 342.821 349.64 342.131 348.922 341.515C348.726 341.351 348.523 341.18 348.312 341.024C348.195 340.921 348.071 340.827 347.942 340.743L347.296 340.29L346.694 339.916C346.164 339.604 345.605 339.299 344.996 339.011C344.807 338.918 344.604 338.832 344.401 338.749C344.198 338.666 343.879 338.531 343.61 338.422H343.566L343.021 338.188C342.608 338.039 342.187 337.906 341.744 337.775L341.069 337.588L340.343 337.409L339.618 337.245C338.892 337.088 338.116 336.949 337.303 336.839L336.476 336.73L335.627 336.637L334.749 336.559L333.501 336.481L332.049 336.426C325.645 336.426 319.259 337.156 312.998 338.604C308.653 337.565 304.203 337.125 299.754 337.294H299.123L298.397 337.341H297.931L296.995 337.435C296.678 337.451 296.363 337.49 296.052 337.552C295.74 337.599 295.413 337.639 295.101 337.693L294.622 337.78C294.15 337.867 293.672 337.959 293.171 338.068C293.011 338.099 292.852 338.138 292.693 338.185C292.061 338.333 291.43 338.512 290.806 338.715C290.494 338.808 290.182 338.918 289.87 339.035C289.708 339.082 289.558 339.144 289.405 339.209L288.941 339.388L288.483 339.583L287.939 339.817C287.663 339.942 287.394 340.075 287.126 340.215C286.974 340.285 286.822 340.364 286.676 340.449C286.531 340.535 286.379 340.605 286.241 340.691C284.6 341.602 283.083 342.752 281.734 344.107L281.363 344.489L281 344.888C280.877 345.02 280.76 345.161 280.644 345.3C280.171 345.856 279.73 346.442 279.323 347.056C279.207 347.22 279.098 347.383 278.989 347.555C278.529 348.285 278.112 349.046 277.741 349.832C277.647 350.019 277.56 350.215 277.473 350.402C276.881 351.719 276.395 353.089 276.022 354.496C275.886 355.016 275.763 355.536 275.651 356.055C275.651 356.055 260.288 363.34 247.545 368.613C244.156 370.017 240.963 371.288 238.292 372.247C237.515 372.527 236.789 372.785 236.114 373.027C234.65 373.595 233.127 373.972 231.579 374.149C230.849 374.162 230.121 374.235 229.401 374.368C223.545 375.389 213.508 379.827 212.412 384.281C212.323 384.636 212.299 385.007 212.34 385.372C212.34 385.372 188.471 464.792 188.208 466.25C187.152 472.193 184.796 483.509 183.637 488.087C182.773 491.503 181.518 496.182 180.654 499.396C180.641 499.49 180.617 499.582 180.582 499.669L213.116 499.326V499.981H213.217L213.173 499.969Z" fill="#7B5EA7"/>
<path d="M353.905 351.948C332.861 356.113 293.235 355.215 276.108 354.584C282.385 330.407 312.995 338.627 312.995 338.627C350.886 330.5 353.789 347.362 353.905 351.948Z" fill="#7B5EA7"/>
<path d="M465.622 458.54C465.622 458.54 490.412 454.445 490.899 466.144C491.386 477.843 478.257 486.016 478.257 486.016L465.622 458.54Z" fill="#ED9DA0"/>
<path d="M484.004 481.936C484.004 481.936 483.358 483.589 482.168 485.985C480.367 489.668 478.175 493.115 475.636 496.256L475.44 496.482H474.265L432.362 496.895H431.36L431.236 496.739L423.111 486.374L420.049 482.466L419.925 482.302L419.665 481.975L419.519 481.788L419.331 481.546L413.373 473.949L415.55 464.2L419.258 447.775L419.353 447.377L420.078 444.257L420.593 441.917L422.321 434.29L428.242 408.045L438.765 413.896L449.859 434.959L455.818 446.268H459.081C459.698 446.268 461.113 447.547 462.536 449.021C463.044 449.545 463.552 450.098 463.987 450.581C465.279 452.015 466.302 453.248 466.302 453.248C466.302 453.248 471.592 453.373 473.015 457.85C473.088 458.066 473.149 458.288 473.196 458.513C473.668 460.272 474.283 461.984 475.032 463.628C475.968 465.82 477.145 468.308 478.334 470.796C480.548 475.358 482.797 479.702 483.625 481.274L483.726 481.468L484.004 481.936Z" fill="#7B5EA7"/>
<path d="M213.173 499.969V499.315L340.624 497.825L418.276 497.045H418.494V496.912L419.219 486.434L419.531 481.755L420.722 464.117L421.658 450.156V449.813C421.7 449.17 421.673 448.523 421.576 447.887C421.58 447.861 421.58 447.835 421.576 447.809C421.377 446.493 420.879 445.25 420.125 444.191C419.326 443.089 418.279 442.225 417.083 441.679C415.887 441.133 414.581 440.924 413.289 441.071C404.5 442.038 395.625 442.81 386.742 443.411C385.53 443.504 384.318 443.586 383.113 443.653C325.825 447.311 269.052 444.347 238.332 442.093L236.155 441.919C230.835 441.513 226.387 441.139 222.962 440.819C221.077 440.649 219.201 441.234 217.694 442.463C216.188 443.691 215.159 445.476 214.805 447.472C214.732 447.894 214.688 448.322 214.674 448.751L214.181 466.034L213.506 487.927L213.186 499.126V499.999L213.173 499.969Z" fill="#090814"/>
<path d="M308.101 329.798C331.317 329.798 350.137 309.572 350.137 284.622C350.137 259.673 331.317 239.447 308.101 239.447C284.885 239.447 266.065 259.673 266.065 284.622C266.065 309.572 284.885 329.798 308.101 329.798Z" fill="#ED9DA0"/>
<path d="M364.918 253.067C364.592 252.693 364.199 252.394 363.763 252.186C363.327 251.979 362.857 251.868 362.38 251.861L363.012 249.975C363.218 249.381 363.272 248.739 363.171 248.114C363.07 247.49 362.816 246.905 362.436 246.421C362.056 245.936 361.563 245.569 361.008 245.356C360.452 245.143 359.854 245.093 359.275 245.21L356.973 245.686L357.19 244.034C357.274 243.418 357.207 242.789 356.996 242.21C356.785 241.63 356.437 241.12 355.987 240.729C355.536 240.338 354.999 240.08 354.427 239.981C353.856 239.881 353.27 239.943 352.728 240.161C352.234 240.37 351.704 240.457 351.175 240.417C350.646 240.376 350.132 240.209 349.671 239.928C349.208 239.655 348.806 239.277 348.493 238.82C348.181 238.362 347.964 237.837 347.86 237.281L347.058 233.125L346.977 232.902C343.071 225.906 335.562 220.817 326.373 218.951C318.193 217.278 309.806 218.131 301.721 218.931C298.514 219.256 294.891 219.621 291.872 221.608C289.306 223.311 287.136 226.718 287.58 230.154C279.608 227.529 271.061 232.774 266.825 239.38C261.806 247.248 260.986 257.106 260.853 264.807C260.495 283.037 263.995 297.951 271.231 309.143C271.759 309.954 271.891 311.647 272.937 312.215L272.72 311.839C273.89 312.468 275.076 313.482 274.635 314.566C273.362 317.689 281.824 324.593 287.786 326.878C298.664 331.045 313.126 330.69 323.292 329.189L323.651 326.604C327.321 326.067 329.907 325.043 330.632 323.44C331.915 322.264 333.009 321.21 333.963 320.237L333.973 320.226C333.991 320.206 334.03 320.176 334.048 320.156C338.643 315.421 339.709 312.724 340.19 308.618C340.652 304.593 339.832 300.507 338.991 296.83C356.671 299.77 332.029 276.594 348.498 272.112C348.687 272.05 348.879 271.999 349.073 271.96C349.554 271.839 350.035 271.717 350.497 271.575C352.725 270.925 354.858 269.946 356.835 268.666C361.438 265.655 362.958 261.66 365.335 257.159C365.678 256.518 365.822 255.777 365.746 255.042C365.67 254.307 365.377 253.617 364.911 253.074L364.918 253.067Z" fill="#090814"/>
<path d="M50.0886 225.288H257V348.611C257 348.983 256.943 349.352 256.832 349.696C256.721 350.04 256.559 350.352 256.354 350.615C256.149 350.879 255.906 351.087 255.639 351.23C255.371 351.372 255.084 351.446 254.794 351.446H52.2943C52.0046 351.446 51.7177 351.372 51.4501 351.23C51.1825 351.087 50.9393 350.879 50.7345 350.615C50.5296 350.352 50.3672 350.04 50.2564 349.696C50.1456 349.352 50.0886 348.983 50.0886 348.611V225.288Z" fill="#E6E6E6"/>
<path d="M57.7222 236.107H248.389C248.679 236.107 248.966 236.18 249.233 236.322C249.501 236.465 249.744 236.673 249.949 236.937C250.154 237.2 250.316 237.512 250.427 237.856C250.538 238.2 250.595 238.569 250.595 238.941V338.532C250.595 338.904 250.538 339.273 250.427 339.617C250.317 339.961 250.154 340.273 249.949 340.536C249.744 340.8 249.501 341.008 249.233 341.151C248.966 341.293 248.679 341.366 248.389 341.366H57.7222C57.4324 341.366 57.1454 341.293 56.8776 341.15C56.6098 341.008 56.3666 340.799 56.1617 340.535C55.9569 340.272 55.7945 339.959 55.6838 339.615C55.5731 339.27 55.5163 338.901 55.5166 338.529V238.941C55.5166 238.189 55.749 237.468 56.1626 236.937C56.5763 236.405 57.1373 236.107 57.7222 236.107Z" fill="white"/>
<path d="M52.2056 218H254.703C255.288 218 255.849 218.299 256.263 218.83C256.676 219.362 256.909 220.082 256.909 220.834V229.294H50V220.834C50 220.082 50.2324 219.362 50.646 218.83C51.0597 218.299 51.6207 218 52.2056 218Z" fill="#7B5EA7"/>
<path d="M62.716 225.317C63.6156 225.317 64.345 224.38 64.345 223.224C64.345 222.068 63.6156 221.131 62.716 221.131C61.8163 221.131 61.0869 222.068 61.0869 223.224C61.0869 224.38 61.8163 225.317 62.716 225.317Z" fill="white"/>
<path d="M68.8991 225.317C69.7988 225.317 70.5281 224.38 70.5281 223.224C70.5281 222.068 69.7988 221.131 68.8991 221.131C67.9994 221.131 67.27 222.068 67.27 223.224C67.27 224.38 67.9994 225.317 68.8991 225.317Z" fill="white"/>
<path d="M110.622 301.149C109.159 299.723 108.094 297.728 107.585 295.461C107.076 293.194 107.152 290.776 107.8 288.568C108.449 286.361 109.635 284.482 111.183 283.212C112.73 281.941 114.556 281.348 116.387 281.52C118.219 281.692 119.958 282.621 121.345 284.167C122.732 285.713 123.693 287.794 124.085 290.099C124.476 292.404 124.277 294.81 123.517 296.958C122.757 299.106 121.477 300.881 119.868 302.018V310.479L109.848 311.46L110.622 301.149Z" fill="#9F616A"/>
<path d="M113.471 284.73C113.471 284.73 117.446 286.098 119.504 286.645C121.562 287.192 121.349 285.642 121.349 285.642C121.349 285.642 124.046 286.1 123.904 285.733C123.761 285.366 125.039 283.453 123.548 281.265C122.056 279.076 122.483 277.435 122.483 277.435H121.206L120.849 276.796H118.865C118.865 276.796 116.668 274.321 112.765 275.051C108.862 275.78 104.246 277.708 103.82 280.717C103.762 281.125 103.686 281.579 103.598 282.058C102.529 287.848 104.799 293.265 107.15 298.389C107.728 299.649 110.524 302.395 110.453 300.511C110.381 298.627 107.936 294.395 109.638 294.121C111.341 293.848 114.252 288.287 113.471 284.73Z" fill="#2F2E41"/>
<path d="M110.933 327.801C109.289 327.632 107.659 327.288 106.059 326.772L106.148 324.59L106.894 307.241L106.901 307.11H121.901L124.256 323.085L124.573 325.243C123.952 325.554 123.324 325.846 122.682 326.104C122.675 326.104 122.675 326.113 122.668 326.113C121.778 326.468 120.873 326.778 119.962 327.035C118.75 327.371 117.524 327.614 116.29 327.762C115.335 327.884 114.377 327.943 113.418 327.94C112.589 327.934 111.754 327.889 110.933 327.801Z" fill="#7B5EA7"/>
<path d="M101.288 324.715C100.667 324.369 100.067 323.995 99.4729 323.603L99.2184 323.434C99.0459 323.319 98.8662 323.195 98.6937 323.071C98.4586 322.902 98.2308 322.734 98.0102 322.565C97.796 322.406 97.5756 322.238 97.3614 322.068C97.3476 322.059 97.341 322.05 97.3267 322.05C96.5812 321.438 95.8509 320.808 95.145 320.126L94.7929 319.78L94.6687 317.225L94.8478 317.083L106.894 307.237L107.059 307.107L107.073 307.098L108.771 307.107V315.231C109.731 317.014 110.38 320.749 110.78 325.636C110.835 326.337 110.882 327.055 110.933 327.8C109.289 327.631 107.658 327.287 106.059 326.772C105.886 326.727 105.72 326.674 105.55 326.612C104.544 326.274 103.553 325.865 102.582 325.388C102.285 325.246 101.995 325.095 101.705 324.945L101.677 324.927C101.55 324.856 101.412 324.784 101.288 324.715Z" fill="#D6D6E3"/>
<path d="M128.107 323.1C127.9 323.242 127.693 323.384 127.485 323.517C127.435 323.553 127.396 323.579 127.354 323.606C127.078 323.783 126.809 323.961 126.533 324.129C126.526 324.138 126.512 324.138 126.512 324.147C126.498 324.156 126.477 324.165 126.464 324.174C125.842 324.555 125.214 324.91 124.572 325.238C123.951 325.549 123.323 325.841 122.681 326.099C122.674 326.099 122.674 326.108 122.667 326.108C121.776 326.462 120.872 326.773 119.961 327.031C119.95 326.301 120.025 325.574 120.182 324.873L120.189 324.749L120.783 312.401L119.989 307.105L122.267 306.67L134.797 315.336C134.797 315.336 133.416 317.11 127.749 320.888C127.247 321.225 127.983 322.337 128.107 323.1Z" fill="#D6D6E3"/>
<path d="M116.138 325.627C115.24 325.734 114.329 325.787 113.417 325.787C112.534 325.787 111.657 325.742 110.78 325.636C110.835 326.337 110.882 327.055 110.933 327.8C111.754 327.889 112.589 327.931 113.418 327.931C114.377 327.935 115.335 327.876 116.289 327.754C117.524 327.605 118.75 327.363 119.962 327.027C119.951 326.297 120.026 325.57 120.183 324.869L120.19 324.745C118.857 325.163 117.503 325.458 116.138 325.627ZM142.225 275.849C140.766 270.465 138.411 265.554 135.323 261.46C132.236 257.365 128.49 254.186 124.348 252.142C120.206 250.099 115.767 249.241 111.34 249.628C106.913 250.016 102.606 251.639 98.7175 254.385C94.8292 257.132 91.454 260.935 88.8271 265.529C86.2002 270.124 84.3849 275.399 83.5078 280.988C82.6307 286.576 82.7128 292.344 83.7485 297.887C84.7843 303.431 86.7486 308.617 89.5046 313.085C89.7804 313.529 90.0644 313.972 90.3534 314.398C90.3809 314.434 90.3947 314.461 90.4155 314.487C91.1282 315.544 91.8865 316.548 92.6868 317.495C92.8802 317.726 93.0802 317.956 93.2802 318.178C93.3011 318.196 93.3148 318.222 93.3357 318.24C93.7499 318.719 94.1779 319.171 94.6197 319.606C94.6818 319.672 94.7372 319.721 94.7922 319.783L95.1444 320.129C95.8487 320.812 96.5805 321.442 97.3261 322.054C97.3398 322.054 97.3464 322.063 97.3607 322.071C97.5749 322.24 97.7953 322.408 98.0096 322.568C98.2238 322.729 98.4584 322.906 98.693 323.074C98.8656 323.198 99.0452 323.322 99.2177 323.437L99.4722 323.606C100.066 323.998 100.667 324.369 101.287 324.718C101.412 324.788 101.55 324.86 101.674 324.931L101.702 324.949C101.992 325.1 102.281 325.25 102.579 325.392C103.55 325.869 104.541 326.278 105.547 326.616C105.72 326.678 105.886 326.731 106.056 326.776C107.656 327.292 109.286 327.636 110.93 327.805C111.751 327.894 112.586 327.936 113.415 327.936C114.374 327.939 115.333 327.88 116.287 327.758C117.521 327.61 118.747 327.367 119.959 327.031C120.871 326.774 121.775 326.464 122.666 326.109C122.672 326.109 122.672 326.1 122.679 326.1C123.321 325.843 123.952 325.55 124.57 325.239C125.213 324.912 125.843 324.556 126.462 324.174C126.476 324.165 126.497 324.157 126.51 324.148C126.51 324.138 126.524 324.138 126.531 324.13C126.807 323.961 127.076 323.784 127.353 323.607C127.394 323.58 127.435 323.554 127.484 323.518C127.691 323.387 127.898 323.243 128.105 323.101C128.119 323.092 128.126 323.083 128.14 323.074C128.685 322.682 129.224 322.275 129.755 321.841C129.9 321.726 130.045 321.61 130.19 321.478C130.404 321.309 130.611 321.123 130.811 320.937C131.08 320.698 131.35 320.449 131.612 320.192C131.699 320.12 131.782 320.04 131.861 319.953C132.503 319.332 133.124 318.676 133.718 317.984C138.22 312.829 141.43 306.075 142.944 298.575C144.458 291.076 144.207 283.168 142.222 275.852L142.225 275.849ZM133.202 315.693C132.455 316.597 131.671 317.449 130.855 318.248C130.676 318.425 130.489 318.603 130.303 318.763C130.123 318.94 129.944 319.109 129.757 319.268C129.598 319.41 129.44 319.552 129.274 319.685C129.26 319.703 129.239 319.712 129.225 319.73C129.108 319.836 128.984 319.934 128.867 320.031C128.501 320.324 128.121 320.62 127.747 320.892C127.657 320.954 127.575 321.023 127.485 321.088C127.434 321.123 127.388 321.159 127.332 321.195C127.125 321.346 126.918 321.478 126.711 321.62C126.683 321.647 126.649 321.656 126.621 321.682C126.611 321.684 126.601 321.691 126.594 321.7C126.449 321.797 126.304 321.886 126.159 321.975C126.035 322.055 125.917 322.135 125.793 322.206C125.289 322.517 124.771 322.809 124.254 323.084C123.708 323.368 123.156 323.626 122.597 323.865C122.459 323.927 122.314 323.996 122.169 324.051C121.513 324.318 120.858 324.557 120.188 324.752C118.856 325.169 117.501 325.463 116.136 325.631C115.238 325.737 114.327 325.79 113.416 325.79C112.532 325.79 111.656 325.746 110.779 325.639C109.215 325.455 107.666 325.106 106.148 324.593C106.092 324.575 106.031 324.558 105.975 324.54C104.729 324.122 103.509 323.589 102.323 322.943C102.261 322.908 102.192 322.878 102.137 322.846C102.068 322.81 102.006 322.784 101.951 322.748C101.881 322.713 101.819 322.678 101.757 322.642C101.24 322.349 100.735 322.03 100.23 321.701L99.9959 321.542C99.547 321.24 99.1052 320.93 98.6727 320.584C98.52 320.477 98.3622 320.353 98.2101 320.229C98.0375 320.098 97.865 319.953 97.7011 319.812L97.577 319.705C97.1902 319.368 96.7968 319.031 96.4243 318.667C96.1622 318.419 95.9067 318.179 95.6513 317.922C95.4853 317.763 95.3199 317.595 95.1612 317.417C95.0594 317.319 94.954 317.204 94.8502 317.09C94.7123 316.939 94.5744 316.788 94.4365 316.629C94.2222 316.407 94.0222 316.159 93.8288 315.928C93.0515 315.008 92.3162 314.03 91.6267 313.001C91.3921 312.664 91.1687 312.327 90.9575 311.972C90.9078 311.903 90.8617 311.828 90.8196 311.751C87.3442 306.113 85.2208 299.298 84.7084 292.137C84.1961 284.975 85.3169 277.777 87.9342 271.42C90.5515 265.063 94.5521 259.823 99.448 256.337C104.344 252.852 109.923 251.273 115.506 251.793C121.088 252.313 126.432 254.909 130.886 259.265C135.339 263.621 138.71 269.548 140.587 276.323C142.463 283.099 142.765 290.429 141.454 297.421C140.143 304.413 137.277 310.763 133.206 315.698L133.202 315.693Z" fill="#3F3D56"/>
<path d="M171.342 259.953H222.361C222.844 259.953 223.308 260.2 223.649 260.639C223.991 261.078 224.183 261.673 224.183 262.294C224.183 262.915 223.991 263.511 223.649 263.95C223.308 264.389 222.844 264.636 222.361 264.636H171.342C170.859 264.636 170.395 264.389 170.054 263.95C169.712 263.511 169.52 262.915 169.52 262.294C169.52 261.673 169.712 261.078 170.054 260.639C170.395 260.2 170.859 259.953 171.342 259.953Z" fill="#7B5EA7"/>
<path d="M171.342 269.318H188.91C189.393 269.318 189.857 269.564 190.198 270.003C190.54 270.442 190.732 271.038 190.732 271.659C190.732 272.28 190.54 272.875 190.198 273.315C189.857 273.754 189.393 274 188.91 274H171.342C170.859 274 170.395 273.754 170.054 273.315C169.712 272.875 169.52 272.28 169.52 271.659C169.52 271.038 169.712 270.442 170.054 270.003C170.395 269.564 170.859 269.318 171.342 269.318Z" fill="#7B5EA7"/>
<path d="M171.342 297.412H222.361C222.844 297.412 223.308 297.658 223.649 298.098C223.991 298.537 224.183 299.132 224.183 299.753C224.183 300.374 223.991 300.97 223.649 301.409C223.308 301.848 222.844 302.094 222.361 302.094H171.342C170.859 302.094 170.395 301.848 170.054 301.409C169.712 300.97 169.52 300.374 169.52 299.753C169.52 299.132 169.712 298.537 170.054 298.098C170.395 297.658 170.859 297.412 171.342 297.412Z" fill="#D6D6E3"/>
<path d="M171.342 305.022H201.152C201.635 305.022 202.099 305.269 202.44 305.708C202.782 306.147 202.974 306.742 202.974 307.363C202.974 307.984 202.782 308.58 202.44 309.019C202.099 309.458 201.635 309.705 201.152 309.705H171.342C170.859 309.705 170.395 309.458 170.054 309.019C169.712 308.58 169.52 307.984 169.52 307.363C169.52 306.742 169.712 306.147 170.054 305.708C170.395 305.269 170.859 305.022 171.342 305.022Z" fill="#D6D6E3"/>
<path d="M171.342 312.631H222.361C222.844 312.631 223.308 312.878 223.649 313.317C223.991 313.756 224.183 314.352 224.183 314.973C224.183 315.594 223.991 316.189 223.649 316.628C223.308 317.067 222.844 317.314 222.361 317.314H171.342C170.859 317.314 170.395 317.067 170.054 316.628C169.712 316.189 169.52 315.594 169.52 314.973C169.52 314.352 169.712 313.756 170.054 313.317C170.395 312.878 170.859 312.631 171.342 312.631Z" fill="#D6D6E3"/>
</g>
<defs>
<clipPath id="clip0_66_1314">
<rect width="650" height="500" fill="white"/>
</clipPath>
</defs>
</svg>
