<svg width="54" height="50" viewBox="0 0 54 50" fill="none" xmlns="http://www.w3.org/2000/svg">
<path d="M50.1957 17.2323C50.1117 19.9523 48.914 22.5388 46.8493 24.4589L39.5814 31.2499C38.5229 32.2438 37.2637 33.0318 35.8769 33.5682C34.4901 34.1046 33.0031 34.3788 31.502 34.3749H31.4915C29.9648 34.3739 28.4538 34.0872 27.0477 33.5317C25.6417 32.9762 24.3691 32.1632 23.3052 31.1406C22.2412 30.1181 21.4075 28.9069 20.8533 27.5785C20.2991 26.25 20.0355 24.8313 20.0783 23.4061C20.0908 22.9917 20.279 22.5989 20.6016 22.3142C20.9242 22.0294 21.3548 21.8759 21.7985 21.8876C22.2423 21.8992 22.6629 22.075 22.9679 22.3763C23.2728 22.6776 23.4371 23.0796 23.4247 23.494C23.3942 24.5017 23.5803 25.5049 23.9721 26.4442C24.3638 27.3836 24.9532 28.2401 25.7054 28.9631C26.4576 29.6861 27.3574 30.261 28.3516 30.6538C29.3457 31.0466 30.4141 31.2493 31.4936 31.2499C32.5548 31.2524 33.6059 31.0585 34.5863 30.6794C35.5667 30.3002 36.4569 29.7433 37.2055 29.0409L44.4734 22.2538C45.9729 20.8359 46.8108 18.9215 46.8041 16.9286C46.7974 14.9358 45.9467 13.0263 44.4377 11.6172C42.9287 10.208 40.884 9.41358 38.75 9.40735C36.616 9.40111 34.566 10.1836 33.0476 11.5839L30.747 13.7323C30.4306 14.013 30.0094 14.1671 29.5731 14.1619C29.1368 14.1567 28.7199 13.9925 28.4114 13.7044C28.1028 13.4163 27.927 13.027 27.9215 12.6195C27.9159 12.2121 28.0809 11.8187 28.3815 11.5233L30.6821 9.3749C31.7435 8.38335 33.0037 7.5968 34.3907 7.06016C35.7777 6.52352 37.2644 6.24731 38.7657 6.24731C40.267 6.24731 41.7537 6.52352 43.1407 7.06016C44.5277 7.5968 45.7879 8.38335 46.8493 9.3749C47.9487 10.4041 48.8123 11.6315 49.3876 12.9823C49.9629 14.3331 50.2378 15.7791 50.1957 17.2323ZM22.7972 36.2616L20.4966 38.4101C19.7462 39.1155 18.8532 39.6745 17.8694 40.0547C16.8856 40.435 15.8306 40.6288 14.7659 40.6249C13.1687 40.6237 11.6076 40.1804 10.28 39.351C8.95244 38.5217 7.91789 37.3434 7.30708 35.9652C6.69628 34.587 6.53664 33.0706 6.84833 31.6077C7.16001 30.1447 7.92905 28.8009 9.05825 27.746L16.3136 20.9589C17.4564 19.8861 18.9182 19.159 20.5091 18.8719C22.1001 18.5849 23.7467 18.7513 25.2351 19.3494C26.7235 19.9475 27.985 20.9497 28.8556 22.2259C29.7263 23.5021 30.1659 24.9933 30.1174 26.5058C30.1049 26.9202 30.2692 27.3222 30.5742 27.6235C30.8792 27.9247 31.2998 28.1005 31.7435 28.1122C32.1873 28.1239 32.6178 27.9704 32.9404 27.6856C33.2631 27.4008 33.4513 27.008 33.4638 26.5936C33.504 25.1427 33.2281 23.6993 32.6528 22.351C32.0776 21.0027 31.215 19.7775 30.1174 18.7499C27.974 16.7492 25.0675 15.6252 22.037 15.6252C19.0064 15.6252 16.0999 16.7492 13.9565 18.7499L6.69278 25.537C5.09537 27.0281 4.00714 28.928 3.56562 30.9965C3.12409 33.065 3.34909 35.2094 4.21218 37.1585C5.07527 39.1076 6.53771 40.7741 8.41468 41.9473C10.2917 43.1205 12.4989 43.7478 14.7575 43.7499C16.259 43.7539 17.7463 43.4798 19.1335 42.9434C20.5207 42.407 21.7802 41.619 22.839 40.6249L25.1397 38.4765C25.4105 38.1786 25.5519 37.7968 25.5362 37.4064C25.5204 37.016 25.3486 36.6452 25.0546 36.3672C24.7606 36.0893 24.3658 35.9242 23.9479 35.9047C23.53 35.8851 23.1195 36.0125 22.7972 36.2616Z" fill="#E91E8C"/>
</svg>
