<svg width="54" height="50" viewBox="0 0 54 50" fill="none" xmlns="http://www.w3.org/2000/svg">
<path d="M18.4052 18.75C18.4052 18.3356 18.5815 17.9382 18.8953 17.6451C19.209 17.3521 19.6346 17.1875 20.0784 17.1875H33.4639C33.9076 17.1875 34.3332 17.3521 34.647 17.6451C34.9608 17.9382 35.1371 18.3356 35.1371 18.75C35.1371 19.1644 34.9608 19.5618 34.647 19.8549C34.3332 20.1479 33.9076 20.3125 33.4639 20.3125H20.0784C19.6346 20.3125 19.209 20.1479 18.8953 19.8549C18.5815 19.5618 18.4052 19.1644 18.4052 18.75ZM20.0784 26.5625H33.4639C33.9076 26.5625 34.3332 26.3979 34.647 26.1049C34.9608 25.8118 35.1371 25.4144 35.1371 25C35.1371 24.5856 34.9608 24.1882 34.647 23.8951C34.3332 23.6021 33.9076 23.4375 33.4639 23.4375H20.0784C19.6346 23.4375 19.209 23.6021 18.8953 23.8951C18.5815 24.1882 18.4052 24.5856 18.4052 25C18.4052 25.4144 18.5815 25.8118 18.8953 26.1049C19.209 26.3979 19.6346 26.5625 20.0784 26.5625ZM26.7711 29.6875H20.0784C19.6346 29.6875 19.209 29.8521 18.8953 30.1451C18.5815 30.4382 18.4052 30.8356 18.4052 31.25C18.4052 31.6644 18.5815 32.0618 18.8953 32.3549C19.209 32.6479 19.6346 32.8125 20.0784 32.8125H26.7711C27.2149 32.8125 27.6405 32.6479 27.9542 32.3549C28.268 32.0618 28.4443 31.6644 28.4443 31.25C28.4443 30.8356 28.268 30.4382 27.9542 30.1451C27.6405 29.8521 27.2149 29.6875 26.7711 29.6875ZM46.8494 9.375V30.6035C46.8508 31.014 46.7648 31.4207 46.5964 31.8C46.428 32.1792 46.1806 32.5234 45.8685 32.8125L35.1371 42.834C34.8274 43.1254 34.4589 43.3565 34.0528 43.5138C33.6467 43.671 33.2112 43.7513 32.7716 43.75H10.0392C9.15173 43.75 8.30057 43.4208 7.673 42.8347C7.04543 42.2487 6.69287 41.4538 6.69287 40.625V9.375C6.69287 8.5462 7.04543 7.75134 7.673 7.16529C8.30057 6.57924 9.15173 6.25 10.0392 6.25H43.503C44.3905 6.25 45.2417 6.57924 45.8692 7.16529C46.4968 7.75134 46.8494 8.5462 46.8494 9.375ZM10.0392 40.625H31.7907V31.25C31.7907 30.8356 31.967 30.4382 32.2808 30.1451C32.5945 29.8521 33.0201 29.6875 33.4639 29.6875H43.503V9.375H10.0392V40.625ZM35.1371 32.8125V38.418L41.1375 32.8125H35.1371Z" fill="#E91E8C"/>
</svg>
