<svg width="50" height="50" viewBox="0 0 50 50" fill="none" xmlns="http://www.w3.org/2000/svg">
<path d="M39.0625 21.875C39.0625 22.2894 38.8979 22.6868 38.6049 22.9799C38.3118 23.2729 37.9144 23.4375 37.5 23.4375H29.6875C29.2731 23.4375 28.8757 23.2729 28.5826 22.9799C28.2896 22.6868 28.125 22.2894 28.125 21.875C28.125 21.4606 28.2896 21.0632 28.5826 20.7701C28.8757 20.4771 29.2731 20.3125 29.6875 20.3125H37.5C37.9144 20.3125 38.3118 20.4771 38.6049 20.7701C38.8979 21.0632 39.0625 21.4606 39.0625 21.875ZM37.5 26.5625H29.6875C29.2731 26.5625 28.8757 26.7271 28.5826 27.0201C28.2896 27.3132 28.125 27.7106 28.125 28.125C28.125 28.5394 28.2896 28.9368 28.5826 29.2299C28.8757 29.5229 29.2731 29.6875 29.6875 29.6875H37.5C37.9144 29.6875 38.3118 29.5229 38.6049 29.2299C38.8979 28.9368 39.0625 28.5394 39.0625 28.125C39.0625 27.7106 38.8979 27.3132 38.6049 27.0201C38.3118 26.7271 37.9144 26.5625 37.5 26.5625ZM45.3125 10.9375V39.0625C45.3125 39.8913 44.9833 40.6862 44.3972 41.2722C43.8112 41.8583 43.0163 42.1875 42.1875 42.1875H7.8125C6.9837 42.1875 6.18884 41.8583 5.60279 41.2722C5.01674 40.6862 4.6875 39.8913 4.6875 39.0625V10.9375C4.6875 10.1087 5.01674 9.31384 5.60279 8.72779C6.18884 8.14174 6.9837 7.8125 7.8125 7.8125H42.1875C43.0163 7.8125 43.8112 8.14174 44.3972 8.72779C44.9833 9.31384 45.3125 10.1087 45.3125 10.9375ZM42.1875 39.0625V10.9375H7.8125V39.0625H42.1875ZM26.5117 32.4219C26.6153 32.8233 26.5552 33.2495 26.3446 33.6066C26.134 33.9637 25.7901 34.2226 25.3887 34.3262C24.9872 34.4298 24.5611 34.3697 24.2039 34.159C23.8468 33.9484 23.588 33.6046 23.4844 33.2031C22.9707 31.1992 20.9336 29.6875 18.748 29.6875C16.5625 29.6875 14.5273 31.1992 14.0117 33.2031C13.9081 33.6046 13.6493 33.9484 13.2922 34.159C12.935 34.3697 12.5089 34.4298 12.1074 34.3262C11.706 34.2226 11.3621 33.9637 11.1515 33.6066C10.9409 33.2495 10.8808 32.8233 10.9844 32.4219C11.4914 30.5347 12.69 28.9073 14.3418 27.8633C13.464 26.9907 12.865 25.8771 12.6209 24.6637C12.3767 23.4503 12.4983 22.1918 12.9702 21.0476C13.4422 19.9034 14.2433 18.925 15.2719 18.2366C16.3005 17.5482 17.5103 17.1807 18.748 17.1807C19.9858 17.1807 21.1956 17.5482 22.2242 18.2366C23.2528 18.925 24.0539 19.9034 24.5258 21.0476C24.9978 22.1918 25.1194 23.4503 24.8752 24.6637C24.631 25.8771 24.0321 26.9907 23.1543 27.8633C24.8079 28.9058 26.0076 30.5337 26.5137 32.4219H26.5117ZM18.75 26.5625C19.3681 26.5625 19.9723 26.3792 20.4862 26.0358C21.0001 25.6925 21.4006 25.2044 21.6371 24.6334C21.8736 24.0624 21.9355 23.434 21.815 22.8278C21.6944 22.2217 21.3967 21.6648 20.9597 21.2278C20.5227 20.7908 19.9658 20.4931 19.3597 20.3725C18.7535 20.252 18.1251 20.3139 17.5541 20.5504C16.9831 20.7869 16.495 21.1874 16.1517 21.7013C15.8083 22.2152 15.625 22.8194 15.625 23.4375C15.625 24.2663 15.9542 25.0612 16.5403 25.6472C17.1263 26.2333 17.9212 26.5625 18.75 26.5625Z" fill="#E91E8C"/>
</svg>
