<svg width="54" height="50" viewBox="0 0 54 50" fill="none" xmlns="http://www.w3.org/2000/svg">
<path d="M48.2965 41.4062C45.1112 36.2636 40.2025 32.5761 34.4739 30.8281C37.3075 29.2528 39.5091 26.8524 40.7404 23.9956C41.9718 21.1388 42.165 17.9835 41.2902 15.0143C40.4154 12.0451 38.5211 9.4261 35.8982 7.55956C33.2752 5.69302 30.0687 4.68213 26.771 4.68213C23.4733 4.68213 20.2667 5.69302 17.6438 7.55956C15.0208 9.4261 13.1265 12.0451 12.2518 15.0143C11.377 17.9835 11.5701 21.1388 12.8015 23.9956C14.0329 26.8524 16.2344 29.2528 19.068 30.8281C13.3395 32.5742 8.43074 36.2617 5.24541 41.4062C5.12859 41.5841 5.05111 41.782 5.01754 41.9883C4.98396 42.1945 4.99496 42.405 5.0499 42.6073C5.10484 42.8095 5.2026 42.9994 5.33741 43.1658C5.47223 43.3322 5.64136 43.4717 5.83484 43.5761C6.02832 43.6804 6.24222 43.7476 6.46392 43.7735C6.68563 43.7994 6.91064 43.7836 7.1257 43.727C7.34075 43.6703 7.54148 43.5741 7.71605 43.4439C7.89062 43.3136 8.03549 43.1521 8.14211 42.9687C12.0825 36.6093 19.0471 32.8124 26.771 32.8124C34.4948 32.8124 41.4595 36.6093 45.3998 42.9687C45.5064 43.1521 45.6513 43.3136 45.8259 43.4439C46.0005 43.5741 46.2012 43.6703 46.4162 43.727C46.6313 43.7836 46.8563 43.7994 47.078 43.7735C47.2997 43.7476 47.5136 43.6804 47.7071 43.5761C47.9006 43.4717 48.0697 43.3322 48.2045 43.1658C48.3393 42.9994 48.4371 42.8095 48.492 42.6073C48.547 42.405 48.558 42.1945 48.5244 41.9883C48.4908 41.782 48.4133 41.5841 48.2965 41.4062ZM15.0587 18.7499C15.0587 16.5867 15.7456 14.4721 17.0325 12.6734C18.3195 10.8747 20.1487 9.47284 22.2889 8.64501C24.429 7.81718 26.784 7.60058 29.0559 8.0226C31.3279 8.44463 33.4148 9.48632 35.0528 11.016C36.6908 12.5456 37.8063 14.4945 38.2582 16.6161C38.7102 18.7378 38.4782 20.937 37.5917 22.9355C36.7053 24.9341 35.2041 26.6423 33.278 27.8441C31.3519 29.046 29.0874 29.6874 26.771 29.6874C23.6657 29.6843 20.6885 28.531 18.4928 26.4805C16.297 24.43 15.062 21.6498 15.0587 18.7499Z" fill="#E91E8C"/>
</svg>
