<svg width="54" height="50" viewBox="0 0 54 50" fill="none" xmlns="http://www.w3.org/2000/svg">
<path d="M51.1996 29.375C51.0238 29.4981 50.8238 29.5877 50.6109 29.6386C50.3981 29.6896 50.1766 29.7008 49.9591 29.6718C49.7415 29.6428 49.5323 29.5741 49.3432 29.4695C49.1541 29.365 48.989 29.2267 48.8571 29.0625C47.8487 27.7966 46.536 26.7695 45.0248 26.0639C43.5136 25.3583 41.8461 24.9939 40.1566 25C39.8275 25 39.5058 24.9094 39.2317 24.7395C38.9575 24.5696 38.743 24.328 38.6151 24.0449C38.5283 23.8527 38.4835 23.6462 38.4835 23.4375C38.4835 23.2289 38.5283 23.0223 38.6151 22.8301C38.743 22.547 38.9575 22.3054 39.2317 22.1355C39.5058 21.9657 39.8275 21.8751 40.1566 21.875C41.0954 21.8749 42.0153 21.629 42.812 21.1651C43.6086 20.7013 44.25 20.0381 44.6632 19.2509C45.0765 18.4637 45.245 17.584 45.1498 16.7119C45.0545 15.8397 44.6992 15.0099 44.1243 14.3169C43.5494 13.6238 42.7778 13.0952 41.8973 12.7911C41.0168 12.487 40.0626 12.4195 39.1431 12.5965C38.2236 12.7734 37.3757 13.1876 36.6956 13.792C36.0156 14.3964 35.5307 15.1668 35.296 16.0156C35.241 16.2144 35.1447 16.4012 35.0125 16.5652C34.8803 16.7292 34.7148 16.8673 34.5254 16.9716C34.3361 17.0758 34.1266 17.1443 33.9089 17.173C33.6912 17.2016 33.4696 17.19 33.2568 17.1387C33.0439 17.0874 32.8439 16.9974 32.6683 16.874C32.4927 16.7505 32.3448 16.596 32.2331 16.4191C32.1214 16.2423 32.0482 16.0467 32.0175 15.8434C31.9868 15.6401 31.9992 15.4332 32.0541 15.2344C32.3799 14.0573 32.9954 12.9674 33.8516 12.0515C34.7077 11.1356 35.781 10.4189 36.986 9.95852C38.1909 9.49812 39.4943 9.30671 40.7925 9.3995C42.0906 9.49229 43.3476 9.86672 44.4635 10.493C45.5794 11.1193 46.5234 11.9802 47.2203 13.0071C47.9172 14.034 48.3479 15.1987 48.478 16.4084C48.6081 17.6181 48.4341 18.8395 47.9698 19.9753C47.5055 21.1112 46.7638 22.1302 45.8036 22.9512C48.0787 23.8711 50.0565 25.3309 51.5405 27.1856C51.6723 27.3501 51.7681 27.5374 51.8223 27.7366C51.8766 27.9357 51.8882 28.143 51.8565 28.3463C51.8248 28.5497 51.7505 28.7453 51.6378 28.9218C51.5251 29.0983 51.3762 29.2523 51.1996 29.375ZM39.9307 41.4063C40.0517 41.5841 40.133 41.783 40.1697 41.9909C40.2063 42.1989 40.1975 42.4116 40.1438 42.6162C40.0901 42.8209 39.9926 43.0134 39.8573 43.1819C39.7219 43.3505 39.5514 43.4918 39.356 43.5973C39.1606 43.7027 38.9444 43.7702 38.7204 43.7956C38.4964 43.821 38.2692 43.8039 38.0525 43.7451C37.8357 43.6864 37.634 43.5874 37.4593 43.454C37.2846 43.3205 37.1407 43.1555 37.0361 42.9688C35.9821 41.3021 34.4809 39.9209 32.6808 38.9614C30.8807 38.0018 28.8438 37.4972 26.7711 37.4972C24.6983 37.4972 22.6614 38.0018 20.8613 38.9614C19.0612 39.9209 17.5601 41.3021 16.5061 42.9688C16.4015 43.1555 16.2575 43.3205 16.0828 43.454C15.9081 43.5874 15.7064 43.6864 15.4897 43.7451C15.2729 43.8039 15.0457 43.821 14.8217 43.7956C14.5977 43.7702 14.3815 43.7027 14.1861 43.5973C13.9908 43.4918 13.8203 43.3505 13.6849 43.1819C13.5495 43.0134 13.452 42.8209 13.3983 42.6162C13.3446 42.4116 13.3358 42.1989 13.3725 41.9909C13.4091 41.783 13.4904 41.5841 13.6114 41.4063C15.2336 38.8035 17.707 36.7552 20.6681 35.5625C19.0019 34.3712 17.7773 32.7222 17.1665 30.8473C16.5558 28.9725 16.5895 26.966 17.263 25.11C17.9365 23.254 19.2159 21.6417 20.9213 20.4998C22.6268 19.3579 24.6725 18.7438 26.7711 18.7438C28.8696 18.7438 30.9153 19.3579 32.6208 20.4998C34.3263 21.6417 35.6056 23.254 36.2791 25.11C36.9526 26.966 36.9863 28.9725 36.3756 30.8473C35.7648 32.7222 34.5402 34.3712 32.874 35.5625C35.8351 36.7552 38.3085 38.8035 39.9307 41.4063ZM26.7711 34.375C28.0948 34.375 29.3887 34.0085 30.4894 33.3217C31.59 32.6349 32.4478 31.6588 32.9544 30.5168C33.4609 29.3748 33.5935 28.1181 33.3352 26.9057C33.077 25.6933 32.4395 24.5797 31.5035 23.7056C30.5676 22.8315 29.375 22.2363 28.0768 21.9951C26.7785 21.754 25.4328 21.8777 24.2099 22.3508C22.9869 22.8238 21.9417 23.6249 21.2062 24.6527C20.4708 25.6805 20.0783 26.8889 20.0783 28.125C20.0783 29.7826 20.7834 31.3723 22.0386 32.5444C23.2937 33.7165 24.996 34.375 26.7711 34.375ZM15.0587 23.4375C15.0587 23.0231 14.8825 22.6257 14.5687 22.3327C14.2549 22.0396 13.8293 21.875 13.3856 21.875C12.4467 21.8749 11.5268 21.629 10.7301 21.1651C9.93351 20.7013 9.29214 20.0381 8.87889 19.2509C8.46564 18.4637 8.29708 17.584 8.39234 16.7119C8.48761 15.8397 8.84288 15.0099 9.41782 14.3169C9.99275 13.6238 10.7643 13.0952 11.6448 12.7911C12.5253 12.487 13.4795 12.4195 14.399 12.5965C15.3185 12.7734 16.1664 13.1876 16.8465 13.792C17.5265 14.3964 18.0115 15.1668 18.2462 16.0156C18.3571 16.4171 18.6343 16.761 19.0167 16.9716C19.3991 17.1822 19.8555 17.2423 20.2854 17.1387C20.7153 17.0351 21.0835 16.7763 21.309 16.4191C21.5345 16.062 21.5989 15.6358 21.488 15.2344C21.1622 14.0573 20.5468 12.9674 19.6906 12.0515C18.8344 11.1356 17.7611 10.4189 16.5562 9.95852C15.3512 9.49812 14.0478 9.30671 12.7497 9.3995C11.4515 9.49229 10.1945 9.86672 9.07862 10.493C7.96272 11.1193 7.01875 11.9802 6.32182 13.0071C5.62489 14.034 5.19422 15.1987 5.0641 16.4084C4.93398 17.6181 5.10799 18.8395 5.57228 19.9753C6.03657 21.1112 6.77834 22.1302 7.73855 22.9512C5.4657 23.872 3.49014 25.3317 2.00788 27.1856C1.74135 27.5171 1.62676 27.9339 1.68932 28.3443C1.75188 28.7547 1.98647 29.1251 2.34147 29.374C2.69648 29.6229 3.14282 29.73 3.58231 29.6715C4.02181 29.6131 4.41845 29.394 4.68498 29.0625C5.69347 27.7966 7.00614 26.7695 8.51733 26.0639C10.0285 25.3583 11.696 24.9939 13.3856 25C13.8293 25 14.2549 24.8354 14.5687 24.5424C14.8825 24.2494 15.0587 23.8519 15.0587 23.4375Z" fill="#E91E8C"/>
</svg>
